<?xml version="1.0" encoding="UTF-8"?>
<svg version="1.1" xmlns="http://www.w3.org/2000/svg" width="1248" height="466">
<path d="M0 0 C2.5 0.3125 2.5 0.3125 5 1 C6.36239076 3.72478152 6.11969958 5.86840855 6.11352539 8.91845703 C6.11344986 10.15959259 6.11337433 11.40072815 6.11329651 12.67947388 C6.1081895 14.03892049 6.1029735 15.39836669 6.09765625 16.7578125 C6.09579142 18.14500884 6.09436782 19.53220584 6.09336853 20.91940308 C6.08954848 24.57234512 6.07972255 28.22524748 6.06866455 31.87817383 C6.05843944 35.60497501 6.05386855 39.33178259 6.04882812 43.05859375 C6.03809983 50.37241394 6.02102954 57.68620141 6 65 C6.56509277 64.99476318 7.13018555 64.98952637 7.71240234 64.98413086 C10.2665903 64.96337578 12.82076053 64.9503446 15.375 64.9375 C16.70917969 64.92493164 16.70917969 64.92493164 18.0703125 64.91210938 C18.92109375 64.90888672 19.771875 64.90566406 20.6484375 64.90234375 C21.43395996 64.89710693 22.21948242 64.89187012 23.02880859 64.88647461 C25 65 25 65 27 66 C27 67.65 27 69.3 27 71 C22.03635091 73.27540433 17.0335268 75.40813351 11.953125 77.41015625 C0.88015695 81.7786787 -10.05926034 86.24821607 -20.625 91.75 C-21.44581055 92.17289307 -22.26662109 92.59578613 -23.11230469 93.03149414 C-31.00479114 97.2556533 -38.97135299 102.45702949 -44 110 C-44.90685981 113.75699064 -45.73173251 117.40332479 -44 121 C-42.20164884 122.02498641 -42.20164884 122.02498641 -40 123 C-38.84443604 123.54781128 -38.84443604 123.54781128 -37.66552734 124.10668945 C-29.09965058 127.88857276 -20.32784652 130.20070352 -11.28518677 132.50643921 C71.68733965 153.7490584 71.68733965 153.7490584 87.74609375 179.828125 C92.4835134 188.03374907 93.4242678 195.63318383 91.34375 204.93359375 C84.47511352 225.80595891 64.69312321 241.14566072 46.95166016 252.72509766 C45.62853539 253.58941558 44.3158742 254.46992667 43.01318359 255.36474609 C42.3527002 255.80512207 41.6922168 256.24549805 41.01171875 256.69921875 C40.43252686 257.09326904 39.85333496 257.48731934 39.2565918 257.89331055 C33.45135839 260.74034323 27.40339654 261.29488313 21.02810669 261.25396729 C19.88678451 261.25864726 19.88678451 261.25864726 18.72240531 261.26342177 C16.1952271 261.27134327 13.66829291 261.26510134 11.14111328 261.25878906 C9.32053996 261.26150139 7.49996774 261.26506368 5.67939758 261.26940918 C0.75218069 261.27850278 -4.17495216 261.27500246 -9.10217047 261.26865101 C-14.25953233 261.26357997 -19.41688711 261.2682851 -24.57424927 261.27142334 C-33.22757254 261.2750578 -41.88086161 261.27027548 -50.53417969 261.26074219 C-60.5476949 261.24983801 -70.56112879 261.25339953 -80.57464206 261.264395 C-89.17179814 261.27345811 -97.76892968 261.27475857 -106.36608899 261.26951766 C-111.50134499 261.26639523 -116.63656269 261.26599651 -121.77181625 261.27259064 C-126.59320469 261.27835 -131.41448765 261.27439322 -136.23586464 261.26280212 C-138.00884259 261.26014885 -139.78182936 261.26093194 -141.55480385 261.26532745 C-143.96666023 261.27075763 -146.37817424 261.26398014 -148.79000854 261.25396729 C-149.49855134 261.25842873 -150.20709413 261.26289017 -150.93710792 261.26748681 C-155.77169842 261.22830158 -155.77169842 261.22830158 -158 259 C-158.125 255.875 -158.125 255.875 -158 253 C-150.34809941 249.37815829 -142.44534409 246.63555581 -134.45230103 243.88616943 C-103.40749084 233.1862572 -72.2149208 221.93702861 -42.625 207.625 C-41.9944873 207.32746826 -41.36397461 207.02993652 -40.71435547 206.72338867 C-36.82013799 204.7697148 -34.34301246 202.68187672 -32 199 C-32 193.56777334 -33.41415129 190.93963646 -37 187 C-39.1030043 185.36464491 -41.15164327 183.88514161 -43.375 182.4375 C-44.01856445 182.01259277 -44.66212891 181.58768555 -45.32519531 181.14990234 C-50.9712014 177.50335844 -56.82917395 174.29930674 -62.75 171.125 C-78.09267618 162.88433582 -92.77569405 154.56442575 -105 142 C-105.94939453 141.06414062 -105.94939453 141.06414062 -106.91796875 140.109375 C-112.04901642 134.6869345 -115.11274092 127.86200883 -115.5 120.375 C-115.00489105 111.55587184 -109.29156033 104.75987917 -103 99 C-79.66778015 81.2625944 -41.16759034 64.59501459 -11.6875 64.9375 C-10.94693359 64.94201172 -10.20636719 64.94652344 -9.44335938 64.95117188 C-7.62887101 64.96287825 -5.81442466 64.98081102 -4 65 C-7.74295992 68.35055283 -12.07635745 69.61799317 -16.75 71.1875 C-17.54277344 71.46013672 -18.33554688 71.73277344 -19.15234375 72.01367188 C-21.09936141 72.68222613 -23.04939366 73.34198978 -25 74 C-19.45044957 73.42389687 -14.73970503 71.97901452 -9.5625 69.9375 C-8.46518555 69.51500977 -8.46518555 69.51500977 -7.34570312 69.08398438 C-5.56126454 68.39586753 -3.78026095 67.69885394 -2 67 C-1.98969254 66.17536758 -1.97938507 65.35073517 -1.96876526 64.50111389 C-1.8709612 56.74594316 -1.76847166 48.99085547 -1.66066074 41.23581791 C-1.60539527 37.24846784 -1.55196963 33.26111048 -1.50268555 29.27368164 C-1.45509524 25.42868399 -1.40275464 21.58377818 -1.34705925 17.73888969 C-1.32661143 16.26883658 -1.30790244 14.79875826 -1.29092598 13.32866096 C-1.26693536 11.27638724 -1.2368741 9.22428853 -1.20532227 7.17211914 C-1.18977798 6.00185684 -1.1742337 4.83159454 -1.15821838 3.62586975 C-1 1 -1 1 0 0 Z " fill="#53AFED" transform="translate(265,102)"/>
<path d="M0 0 C3.17748401 2.1481582 6.07898626 4.52102105 9 7 C9.99 7.66 10.98 8.32 12 9 C12.46148438 8.62488281 12.92296875 8.24976563 13.3984375 7.86328125 C25.30359754 -1.4773285 36.07078527 -4.24875207 51 -3 C59.66876093 -1.28688772 66.15600965 3.0185023 71.53125 9.984375 C77.05465574 18.26948361 77.3286692 26.16743977 77.44921875 35.8984375 C77.47095657 37.12913971 77.4926944 38.35984192 77.51509094 39.62783813 C77.55887343 42.21812913 77.59810314 44.8085006 77.63305664 47.39892578 C77.68759796 51.38215392 77.75771901 55.36471644 77.83007812 59.34765625 C77.87070641 61.86456873 77.9104512 64.38149567 77.94921875 66.8984375 C77.98036018 68.69515396 77.98036018 68.69515396 78.01213074 70.52816772 C78.02577164 71.62666046 78.03941254 72.7251532 78.0534668 73.85693359 C78.07439644 75.3141835 78.07439644 75.3141835 78.0957489 76.8008728 C78 79 78 79 77 80 C74.54507499 80.18063984 72.14495751 80.27801743 69.6875 80.3125 C68.67139648 80.35600586 68.67139648 80.35600586 67.63476562 80.40039062 C64.5892946 80.43909163 62.42606324 80.25900745 59.80200195 78.66381836 C56.90539607 74.38189629 57.47670593 70.00272184 57.53125 64.953125 C57.52420044 63.86795593 57.51715088 62.78278687 57.5098877 61.66473389 C57.48039562 57.02506322 57.4969927 52.38581121 57.50927734 47.74609375 C57.51166571 44.3565178 57.49069171 40.96761701 57.46875 37.578125 C57.48006958 36.53827454 57.49138916 35.49842407 57.50305176 34.42706299 C57.46007809 28.19346596 56.78884227 23.12287555 53 18 C47.46311255 14.18569976 41.66253567 13.57073762 35.125 14.5625 C29.59262289 15.79567108 25.38244986 18.47790839 21 22 C20.20845016 22.62659012 20.20845016 22.62659012 19.40090942 23.26583862 C17.46478529 25.66253297 17.64413492 27.22445642 17.67529297 30.28173828 C17.6804744 31.89823776 17.6804744 31.89823776 17.6857605 33.5473938 C17.71369186 35.29123856 17.71369186 35.29123856 17.7421875 37.0703125 C17.74880402 38.26228241 17.75542053 39.45425232 17.76223755 40.68234253 C17.78568907 44.49682146 17.82942636 48.31072652 17.875 52.125 C17.90998786 55.94634558 17.94076636 59.7676607 17.96633911 63.58908081 C17.98340201 65.96960686 18.00661222 68.35009777 18.03634644 70.73049927 C18.04610504 71.80186127 18.05586365 72.87322327 18.06591797 73.97705078 C18.07718719 74.92508575 18.08845642 75.87312073 18.10006714 76.84988403 C18 79 18 79 17 80 C14.54507499 80.18063984 12.14495751 80.27801743 9.6875 80.3125 C8.67139648 80.35600586 8.67139648 80.35600586 7.63476562 80.40039062 C4.59258511 80.43904981 2.42698957 80.25897577 -0.19580078 78.66821289 C-3.10193323 74.37036153 -2.54324929 69.95169694 -2.50390625 64.8828125 C-2.51332748 63.79290009 -2.52274872 62.70298767 -2.53245544 61.58004761 C-2.56114893 58.09484101 -2.56418233 54.61031528 -2.5625 51.125 C-2.56610846 47.64692498 -2.57566512 44.16934714 -2.60325623 40.69137573 C-2.62002957 38.52780424 -2.62293226 36.36406928 -2.61024475 34.20046997 C-2.65717226 27.46700768 -3.35250401 22.88817745 -8.0625 17.75 C-13.41030259 14.56407505 -19.26635754 13.42928822 -25.4375 14.4375 C-31.91807877 16.18494177 -38.27432573 20.27432573 -43 25 C-43.32439596 27.37791946 -43.32439596 27.37791946 -43.30297852 30.16821289 C-43.31962051 31.24595474 -43.33626251 32.32369659 -43.35340881 33.43409729 C-43.36182297 34.60182175 -43.37023712 35.7695462 -43.37890625 36.97265625 C-43.39590073 38.16604111 -43.4128952 39.35942596 -43.43040466 40.588974 C-43.48369208 44.41342847 -43.52390613 48.23787116 -43.5625 52.0625 C-43.60634742 55.89064357 -43.6529882 59.71870029 -43.70530701 63.54673767 C-43.7373975 65.93270894 -43.76424516 68.31875718 -43.78553772 70.70484924 C-43.79902756 71.77943893 -43.8125174 72.85402863 -43.82641602 73.96118164 C-43.83592789 74.91223282 -43.84543976 75.863284 -43.85523987 76.84315491 C-44 79 -44 79 -45 80 C-47.6773138 80.09981214 -50.32304175 80.13879875 -53 80.125 C-54.12535156 80.13080078 -54.12535156 80.13080078 -55.2734375 80.13671875 C-60.87338947 80.12661053 -60.87338947 80.12661053 -62 79 C-62.09504251 76.47458998 -62.12557158 73.97662874 -62.11352539 71.45092773 C-62.11367142 70.66074249 -62.11381744 69.87055725 -62.1139679 69.056427 C-62.11326857 66.43212178 -62.10547527 63.80788664 -62.09765625 61.18359375 C-62.09579214 59.36898335 -62.0943682 57.55437244 -62.09336853 55.73976135 C-62.08954279 50.9540977 -62.07971204 46.1684642 -62.06866455 41.3828125 C-62.05845163 36.50325936 -62.05387117 31.62370136 -62.04882812 26.74414062 C-62.03808982 17.16274714 -62.02101273 7.58137607 -62 -2 C-59.56131832 -2.1079859 -57.12740867 -2.18726589 -54.6875 -2.25 C-53.99720703 -2.28351563 -53.30691406 -2.31703125 -52.59570312 -2.3515625 C-47.47270051 -2.45055772 -47.47270051 -2.45055772 -45.08203125 -0.171875 C-44 2 -44 2 -43 5 C-42.34773437 4.59007812 -41.69546875 4.18015625 -41.0234375 3.7578125 C-40.14945313 3.21898437 -39.27546875 2.68015625 -38.375 2.125 C-37.51648438 1.59132812 -36.65796875 1.05765625 -35.7734375 0.5078125 C-25.82608075 -4.90018709 -10.25267899 -5.20770996 0 0 Z " fill="#E9ECEC" transform="translate(845,195)"/>
<path d="M0 0 C1.24394531 -0.01417969 2.48789062 -0.02835938 3.76953125 -0.04296875 C6.92584647 0.16985708 8.61866986 0.41482061 11.1875 2.1875 C12.45099222 4.71448444 12.31334977 6.4513703 12.31448364 9.28065491 C12.31871338 10.89812874 12.31871338 10.89812874 12.32302856 12.54827881 C12.31999222 14.33047821 12.31999222 14.33047821 12.31689453 16.14868164 C12.31952301 18.01939583 12.31952301 18.01939583 12.32220459 19.92790222 C12.32585904 23.35338269 12.32499217 26.778803 12.3218255 30.20428014 C12.3192991 33.78327724 12.32164018 37.36227172 12.32321167 40.94126892 C12.32503231 46.95116642 12.32262958 52.96105163 12.31787109 58.97094727 C12.3124262 65.92829911 12.3141932 72.88562167 12.3196975 79.84297282 C12.32422869 85.80816241 12.32487922 91.77334316 12.32225883 97.73853391 C12.32069641 101.30496828 12.32050139 104.87138885 12.32379532 108.43782234 C12.32720799 112.4104642 12.32248421 116.38307298 12.31689453 120.35571289 C12.31891876 121.54587006 12.32094299 122.73602722 12.32302856 123.96224976 C12.32020874 125.03774582 12.31738892 126.11324188 12.31448364 127.22132874 C12.3139181 128.63192361 12.3139181 128.63192361 12.31334114 130.07101536 C12.1875 132.1875 12.1875 132.1875 11.1875 133.1875 C1.24921639 134.26942823 1.24921639 134.26942823 -2.94140625 132.0703125 C-4.5625 130.6875 -4.5625 130.6875 -6.8125 128.1875 C-7.47636719 128.53683594 -8.14023437 128.88617188 -8.82421875 129.24609375 C-9.70722656 129.70113281 -10.59023438 130.15617188 -11.5 130.625 C-12.37011719 131.07746094 -13.24023438 131.52992188 -14.13671875 131.99609375 C-22.61181094 135.76967494 -34.05364791 135.49371798 -42.75 132.5625 C-52.26865402 128.51530933 -59.791316 121.86157011 -64.1015625 112.33984375 C-68.69055456 100.07501964 -70.33091913 85.45296744 -64.8125 73.1875 C-59.55414408 62.3595459 -52.01065485 55.60830501 -40.8125 51.1875 C-30.03112382 48.38505619 -18.89764817 49.71916923 -8.8125 54.1875 C-8.4825 54.5175 -8.1525 54.8475 -7.8125 55.1875 C-7.81472061 54.5132045 -7.81694122 53.838909 -7.81922913 53.1441803 C-7.84127929 46.15317309 -7.85640547 39.16217569 -7.86743164 32.17114258 C-7.87247377 29.55883381 -7.87930725 26.94652789 -7.88793945 24.33422852 C-7.90001036 20.58869732 -7.90572935 16.84320328 -7.91015625 13.09765625 C-7.91531754 11.92163345 -7.92047882 10.74561066 -7.92579651 9.53395081 C-7.92587204 8.45290573 -7.92594757 7.37186066 -7.92602539 6.25805664 C-7.928246 5.30097305 -7.93046661 4.34388947 -7.93275452 3.35780334 C-7.67323729 -1.32585528 -3.88749156 0.02001798 0 0 Z M-44.8125 75.1875 C-50.15409216 83.3378929 -50.24622882 90.69758065 -48.8125 100.1875 C-46.92279022 106.81234464 -42.49976967 111.44778351 -36.8125 115.1875 C-27.13380604 119.3355117 -18.24350339 116.47186342 -8.8125 113.1875 C-8.1525 112.8575 -7.4925 112.5275 -6.8125 112.1875 C-6.8125 99.3175 -6.8125 86.4475 -6.8125 73.1875 C-20.20513415 67.09993902 -33.44695743 63.67435299 -44.8125 75.1875 Z " fill="#E8EAEA" transform="translate(657.8125,141.8125)"/>
<path d="M0 0 C10.50431891 8.61009747 14.83172429 17.79959986 16.36425781 31.22021484 C17.52505362 44.14394405 13.58225086 55.41214389 5.8984375 65.73828125 C-0.38090298 72.59904215 -9.267805 76.81609525 -18.53515625 77.48828125 C-27.70886751 77.66852997 -34.97790751 76.38604624 -43.25 72.25 C-43.25142502 72.84246521 -43.25285004 73.43493042 -43.25431824 74.04534912 C-43.27399978 80.21006611 -43.32823977 86.37379086 -43.40258789 92.53808594 C-43.42578968 94.83879478 -43.44016869 97.13961016 -43.44555664 99.44042969 C-43.45482991 102.74742192 -43.49578712 106.05273329 -43.54296875 109.359375 C-43.53706978 110.9033194 -43.53706978 110.9033194 -43.53105164 112.47845459 C-43.67693739 119.61335611 -43.67693739 119.61335611 -46.60668945 122.86816406 C-50.14409612 124.71740409 -52.86736493 125.40500301 -56.8125 125.4375 C-57.59753906 125.45167969 -58.38257813 125.46585938 -59.19140625 125.48046875 C-61.25 125.25 -61.25 125.25 -63.25 123.25 C-63.51171303 120.98926353 -63.51171303 120.98926353 -63.5284729 118.1121521 C-63.53963638 117.0239769 -63.55079987 115.9358017 -63.56230164 114.81465149 C-63.56446182 113.61559677 -63.56662201 112.41654205 -63.56884766 111.18115234 C-63.57889328 109.92264969 -63.5889389 108.66414703 -63.59928894 107.36750793 C-63.6266532 103.91113806 -63.64175724 100.45480908 -63.65471697 96.9983592 C-63.67031953 93.38815065 -63.69711884 89.77802598 -63.7227478 86.1678772 C-63.76958668 79.32915199 -63.80630597 72.49041109 -63.83942068 65.65160716 C-63.87760606 57.86689297 -63.92702554 50.08226292 -63.97740483 42.29761958 C-64.08080063 26.28180675 -64.17003605 10.26594731 -64.25 -5.75 C-61.49894578 -5.85812003 -58.75214913 -5.93734945 -56 -6 C-55.22269531 -6.03351563 -54.44539063 -6.06703125 -53.64453125 -6.1015625 C-47.82002825 -6.20112665 -47.82002825 -6.20112665 -44.703125 -3.734375 C-44.22359375 -3.07953125 -43.7440625 -2.4246875 -43.25 -1.75 C-42.59 -2.20375 -41.93 -2.6575 -41.25 -3.125 C-28.3921441 -10.08967195 -11.77641447 -8.24123842 0 0 Z M-39.25 13.25 C-40.11359131 13.58708984 -40.97718262 13.92417969 -41.86694336 14.27148438 C-44.670644 16.15144653 -44.670644 16.15144653 -44.81762695 20.07885742 C-44.81683624 21.67128066 -44.78863458 23.26384162 -44.73828125 24.85546875 C-44.73120651 25.69467361 -44.72413177 26.53387848 -44.71684265 27.39851379 C-44.68885167 30.07908259 -44.62610801 32.75756267 -44.5625 35.4375 C-44.53742305 37.25452712 -44.51460882 39.07158699 -44.49414062 40.88867188 C-44.43900999 45.34325278 -44.35270783 49.79627229 -44.25 54.25 C-42.69304446 55.07188942 -41.1307796 55.88372513 -39.56640625 56.69140625 C-38.26231812 57.3711853 -38.26231812 57.3711853 -36.93188477 58.06469727 C-30.6879539 60.8243044 -23.96213511 60.84662814 -17.41796875 59.09765625 C-10.88581631 56.5436435 -6.78553073 52.53114037 -3.94140625 46.1796875 C-1.24053936 38.64167481 -0.84441447 29.47339278 -4.1484375 22.0625 C-7.49985343 16.54811351 -11.96351134 12.60096091 -18.15625 10.68359375 C-25.54701417 9.15304371 -32.30380512 10.4554216 -39.25 13.25 Z " fill="#E8EBEB" transform="translate(1094.25,198.75)"/>
<path d="M0 0 C8.1972678 7.67805506 12.36898987 17.47683154 13.0625 28.6796875 C13.02302237 31.89429441 12.61478246 34.09039458 11.03515625 36.90625 C5.36216519 40.929754 -0.70572787 40.28884067 -7.36328125 40.19921875 C-8.55337799 40.19497391 -9.74347473 40.19072906 -10.96963501 40.18635559 C-14.7599375 40.16960169 -18.54970273 40.13195416 -22.33984375 40.09375 C-24.91405481 40.07869897 -27.48827422 40.0650113 -30.0625 40.05273438 C-36.36346367 40.01970883 -42.66411532 39.96954145 -48.96484375 39.90625 C-48.35424886 41.18353217 -47.73707152 42.45766882 -47.1171875 43.73046875 C-46.60273071 44.79527466 -46.60273071 44.79527466 -46.07788086 45.8815918 C-43.32397904 50.89104734 -38.65246792 54.7472824 -33.1875 56.46484375 C-23.761045 58.33688139 -14.6374962 56.86521654 -5.96484375 52.90625 C-4.62007238 51.92168525 -3.28440225 50.92435763 -1.96484375 49.90625 C0.47265625 49.34375 0.47265625 49.34375 3.03515625 49.90625 C5.00516073 51.76322143 6.42663294 53.70027518 8.03515625 55.90625 C5.66796154 62.93462193 0.43826871 67.15300092 -6.05078125 70.49609375 C-18.44804943 75.77641168 -30.07303983 76.61121116 -42.9609375 72.16015625 C-53.16227523 67.90186052 -61.69351471 60.11855744 -66.22265625 49.91796875 C-70.77656369 37.57448281 -70.00777813 24.9872984 -64.96484375 12.90625 C-59.71243857 2.54512246 -51.5253181 -4.1636798 -40.73046875 -8.19140625 C-26.43905053 -12.85428423 -11.39617895 -9.48676625 0 0 Z M-46.8359375 16.9296875 C-48.40527058 19.41236641 -48.40527058 19.41236641 -48.96484375 24.90625 C-35.10484375 24.90625 -21.24484375 24.90625 -6.96484375 24.90625 C-8.927352 17.28121195 -8.927352 17.28121195 -13.33984375 12.46875 C-13.90445313 12.01628906 -14.4690625 11.56382812 -15.05078125 11.09765625 C-26.34571402 4.06713687 -38.56707589 7.4216232 -46.8359375 16.9296875 Z " fill="#E7EAEA" transform="translate(753.96484375,201.09375)"/>
<path d="M0 0 C9.06773135 9.06773135 9.57246275 20.70000464 9.63671875 32.88671875 C9.65466995 34.15852493 9.67262115 35.43033112 9.69111633 36.74067688 C9.73577383 40.08281806 9.76825018 43.42460429 9.79455566 46.76690674 C9.82461038 50.19304264 9.87105331 53.61895493 9.91601562 57.04492188 C10.00059075 63.73817685 10.0690816 70.43144752 10.125 77.125 C7.85520335 77.23294277 5.58394804 77.31056176 3.3125 77.375 C2.04792969 77.42140625 0.78335938 77.4678125 -0.51953125 77.515625 C-3.875 77.125 -3.875 77.125 -5.82421875 75.296875 C-6.875 73.125 -6.875 73.125 -6.875 70.125 C-8.37740234 70.86556641 -8.37740234 70.86556641 -9.91015625 71.62109375 C-11.25236192 72.26873145 -12.59482363 72.91583871 -13.9375 73.5625 C-14.59427734 73.88798828 -15.25105469 74.21347656 -15.92773438 74.54882812 C-25.89210928 79.31013042 -38.45724938 79.95455298 -48.9375 76.4375 C-55.29985883 73.76008507 -59.2501997 69.80007983 -62.14453125 63.5625 C-64.03697921 57.24759344 -64.02055777 49.8683949 -61.4375 43.75 C-55.89678628 34.57982921 -45.22219107 30.05490095 -35.28369141 27.44433594 C-26.8820766 25.38017703 -18.42946032 23.44107082 -9.875 22.125 C-11.07685937 16.31681664 -11.07685937 16.31681664 -14.875 12.125 C-24.88850233 8.97789927 -36.70837088 11.96767247 -45.875 16.375 C-46.865 16.90867188 -46.865 16.90867188 -47.875 17.453125 C-50.63391808 18.37994904 -52.16228985 18.14999797 -54.875 17.125 C-56.2734375 15.015625 -56.2734375 15.015625 -57.25 12.375 C-57.58773437 11.51390625 -57.92546875 10.6528125 -58.2734375 9.765625 C-58.97045589 6.70598582 -59.03868375 5.04887766 -57.875 2.125 C-42.12959141 -8.13666284 -15.88916367 -10.36249805 0 0 Z M-23.6875 41.375 C-24.84088867 41.68244141 -24.84088867 41.68244141 -26.01757812 41.99609375 C-32.03447165 43.67168435 -38.24551844 45.65986103 -42.875 50 C-44.26351163 52.95058721 -44.34485556 54.90313327 -43.875 58.125 C-41.48440254 61.28400379 -39.68201617 62.37769683 -35.875 63.125 C-28.36472913 64.04864218 -21.77151302 62.00496842 -14.875 59.125 C-13.93785156 58.7640625 -13.00070312 58.403125 -12.03515625 58.03125 C-9.74080618 56.3879999 -9.74080618 56.3879999 -9.48486328 54.29223633 C-9.38102577 51.98688863 -9.43963203 49.74174698 -9.5625 47.4375 C-9.59633789 46.24157227 -9.59633789 46.24157227 -9.63085938 45.02148438 C-9.68973056 43.05518666 -9.77941245 41.08985509 -9.875 39.125 C-14.76508302 38.77220844 -19.03271068 40.06043522 -23.6875 41.375 Z " fill="#E7EAEA" transform="translate(1000.875,197.875)"/>
<path d="M0 0 C7.82510142 7.45328234 13.38734741 16.75482739 14.046875 27.6640625 C14.35688013 40.54742866 12.86731486 50.90067261 3.80859375 60.72265625 C-4.16091922 68.78088365 -12.47083158 74.11665803 -24.0234375 75.0234375 C-38.01616528 75.06463297 -48.60357944 72.5180094 -59.265625 62.83984375 C-67.89961329 53.58780423 -71.78491804 42.22374491 -71.50390625 29.68359375 C-70.51303961 20.29513234 -67.11775534 12.02655864 -61.19140625 4.72265625 C-60.68996094 4.09746094 -60.18851562 3.47226563 -59.671875 2.828125 C-44.33072437 -14.30469286 -17.18752047 -13.9715603 0 0 Z M-47.6015625 16.40625 C-52.17240395 23.02930598 -53.89290829 30.01364402 -52.56640625 37.97265625 C-50.69614754 45.50074161 -46.32636544 50.24692466 -40.19140625 54.72265625 C-34.07208489 58.01767544 -27.13377771 58.35172346 -20.49609375 56.640625 C-13.28660536 53.76904911 -8.344537 48.68582 -5.19140625 41.72265625 C-2.97663581 34.32502167 -3.66494683 27.05736043 -6.8046875 20.05078125 C-10.55167252 13.76006837 -16.05114442 10.08163682 -23.03515625 8.15625 C-31.88649757 6.37636071 -41.6802889 9.336807 -47.6015625 16.40625 Z " fill="#E9EBEB" transform="translate(563.19140625,201.27734375)"/>
<path d="M0 0 C0.99 0.99 0.99 0.99 2 2 C1.64852906 5.35303272 0.12290412 7.53853757 -1.875 10.1875 C-2.64457031 11.22970703 -2.64457031 11.22970703 -3.4296875 12.29296875 C-5 14 -5 14 -8 15 C-10.33984375 13.8203125 -10.33984375 13.8203125 -12.9375 12.125 C-18.61392089 8.44346006 -23.1910186 7.31670433 -30 8 C-36.98739562 9.68862061 -42.75973233 11.79921473 -46.75 18 C-50.76850692 24.71446725 -50.61259438 31.3255538 -50 39 C-48.12044995 45.59885506 -43.89708656 50.31003284 -38 53.75 C-31.12949265 56.6127114 -24.87462451 56.90216085 -17.875 54.25 C-14.09257152 52.63554882 -11.03236092 50.83020352 -8 48 C-4.32943063 49.47797262 -2.58914217 51.47615477 -0.25 54.625 C0.36359375 55.44226563 0.9771875 56.25953125 1.609375 57.1015625 C2.06828125 57.72804688 2.5271875 58.35453125 3 59 C-0.8065003 66.31149563 -8.18317559 70.27228899 -15.8125 72.9375 C-27.36583341 75.87167991 -38.21620658 74.43226926 -48.50390625 68.57421875 C-58.38225614 62.27616042 -65.85067199 53.42218963 -69 42 C-71.31688333 30.20495757 -69.6737009 19.4605714 -63.42578125 9.12109375 C-56.29457457 -1.48779728 -46.46390705 -7.87544944 -33.9375 -10.6875 C-20.24019797 -11.77458746 -10.43722693 -8.76026241 0 0 Z " fill="#E8EAEA" transform="translate(480,202)"/>
<path d="M0 0 C1.010625 0.474375 2.02125 0.94875 3.0625 1.4375 C11.20547138 4.86440178 17.94424957 3.89590641 26 0.875 C29.98375252 -0.28692782 33.87677875 -0.53405532 38 0 C38.99 0.66 39.98 1.32 41 2 C41.26727014 4.48340903 41.34866334 6.71472068 41.29296875 9.1953125 C41.28872391 9.90275604 41.28447906 10.61019958 41.28010559 11.33908081 C41.26329547 13.60143905 41.22564128 15.86291048 41.1875 18.125 C41.17245607 19.65753923 41.15876716 21.1900924 41.14648438 22.72265625 C41.11338462 26.48211318 41.06158825 30.24090618 41 34 C39.89245361 33.67169189 38.78490723 33.34338379 37.64379883 33.00512695 C31.36950783 31.27438953 26.14701105 32.55976125 20.0625 34.5625 C12.09508264 37.07787438 6.40311455 36.83352915 -1 33 C-1.02465392 28.46102295 -1.04283789 23.92208457 -1.05493164 19.38305664 C-1.0599714 17.83780234 -1.0668032 16.29255284 -1.07543945 14.74731445 C-1.08752076 12.53074971 -1.09323173 10.31424782 -1.09765625 8.09765625 C-1.10281754 7.4028566 -1.10797882 6.70805695 -1.11329651 5.99220276 C-1.11349277 4.3277067 -1.06189129 2.66334501 -1 1 C-0.67 0.67 -0.34 0.34 0 0 Z " fill="#51AAE7" transform="translate(275,104)"/>
<path d="M0 0 C-3.77339968 4.26962758 -8.45339844 7.10456976 -13.1875 10.1875 C-14.82741714 11.26341775 -16.46677112 12.34019452 -18.10546875 13.41796875 C-18.82887451 13.89000732 -19.55228027 14.3620459 -20.29760742 14.84838867 C-21.95300662 15.88984358 -21.95300662 15.88984358 -23 17 C-25.69654854 17.07319621 -28.36691458 17.09242537 -31.0625 17.0625 C-31.82111328 17.05798828 -32.57972656 17.05347656 -33.36132812 17.04882812 C-35.24091871 17.0370068 -37.12046899 17.01907078 -39 17 C-35.45638746 13.13815041 -31.47005085 10.67382424 -26.98608398 8.01757812 C-24.52943224 6.55540743 -22.13866566 5.10571038 -19.86328125 3.37109375 C-13.80505252 -1.24157064 -7.33959591 -0.46387895 0 0 Z " fill="#171A1D" transform="translate(271,333)"/>
<path d="M0 0 C2.31 0 4.62 0 7 0 C7.97145038 7.38302292 4.03916542 13.00050618 0.05078125 18.8671875 C-5.29972245 25.64897496 -5.29972245 25.64897496 -10.02734375 26.625 C-12.75956371 26.625 -15.30816792 26.45283156 -18 26 C-18 25.34 -18 24.68 -18 24 C-16.49609375 22.5546875 -16.49609375 22.5546875 -14.4375 20.875 C-7.24334755 14.7012947 -2.27966834 9.37920688 0 0 Z " fill="#181C1E" transform="translate(296,294)"/>
<path d="M0 0 C13.81772799 -0.84945049 23.50167532 2.03962138 35 10 C35 10.33 35 10.66 35 11 C22.7776091 12.80659427 12.47578854 7.94247887 2 2 C1.34 1.34 0.68 0.68 0 0 Z " fill="#181B1D" transform="translate(257,268)"/>
<path d="M0 0 C9.13127367 -0.71711573 14.94698366 0.87881598 23 5 C25.22101007 5.95666324 27.45022815 6.89451038 29.6875 7.8125 C30.70199219 8.23144531 31.71648437 8.65039062 32.76171875 9.08203125 C33.50035156 9.38496094 34.23898438 9.68789063 35 10 C35 10.33 35 10.66 35 11 C22.47950139 12.67907349 11.64504164 8.49084235 1 2 C0.67 1.34 0.34 0.68 0 0 Z " fill="#1B252C" transform="translate(212,248)"/>
<path d="M0 0 C1.32 0 2.64 0 4 0 C4.18433594 0.6290625 4.36867187 1.258125 4.55859375 1.90625 C7.94041067 11.88636748 14.82006371 17.31237296 24 22 C24 22.33 24 22.66 24 23 C18.9418763 23.98748619 15.38028396 23.90883632 10.9921875 21.01953125 C5.9447019 16.57101394 1.65618521 12.62474083 0 6 C-0.1875 2.5625 -0.1875 2.5625 0 0 Z " fill="#161A1C" transform="translate(180,216)"/>
<path d="M0 0 C-1.32164815 2.64329631 -2.58137608 2.89398961 -5.25 4.125 C-12.46908348 7.62011822 -19.88598566 11.68634845 -26.1484375 16.73046875 C-28.99506787 18.68227228 -31.65392429 18.19304283 -35 18 C-30.61545704 13.24567631 -25.2181385 10.25492485 -19.70166016 7.00488281 C-18.11017031 6.06505897 -16.52925869 5.10738619 -14.94921875 4.1484375 C-9.71508022 1.09338015 -6.09881619 -0.81317549 0 0 Z " fill="#1A2227" transform="translate(224,186)"/>
<path d="M0 0 C0.66 0.33 1.32 0.66 2 1 C-1.96 4.96 -5.92 8.92 -10 13 C-10 9.28115772 -9.1259934 8.63852271 -6.6875 5.9375 C-5.76517578 4.89916016 -5.76517578 4.89916016 -4.82421875 3.83984375 C-3 2 -3 2 0 0 Z " fill="#B5B7B7" transform="translate(428,199)"/>
<path d="M0 0 C4.62 0 9.24 0 14 0 C14 0.99 14 1.98 14 3 C11.36 3 8.72 3 6 3 C6 2.34 6 1.68 6 1 C4.02 1 2.04 1 0 1 C0 0.67 0 0.34 0 0 Z " fill="#2B2B2B" transform="translate(1234,290)"/>
<path d="M0 0 C0.66 0.33 1.32 0.66 2 1 C-1.3 4.3 -4.6 7.6 -8 11 C-8.66 10.67 -9.32 10.34 -10 10 C-3.84965831 2.51708428 -3.84965831 2.51708428 0 0 Z " fill="#B5B7B7" transform="translate(607,198)"/>
<path d="M0 0 C0.66 0.33 1.32 0.66 2 1 C-0.97 3.97 -3.94 6.94 -7 10 C-7 6.04435836 -5.59478606 4.89133304 -3 2 C-2.01 1.34 -1.02 0.68 0 0 Z " fill="#A6A9A9" transform="translate(948,233)"/>
<path d="M0 0 C2 1 2 1 2 1 Z " fill="#2C2C2C" transform="translate(1246,294)"/>
</svg>
