<?xml version="1.0" encoding="UTF-8"?>
<svg version="1.1" xmlns="http://www.w3.org/2000/svg" width="1816" height="520">
<path d="M0 0 C599.28 0 1198.56 0 1816 0 C1816 171.6 1816 343.2 1816 520 C1216.72 520 617.44 520 0 520 C0 348.4 0 176.8 0 0 Z " fill="#FEFEFE" transform="translate(0,0)"/>
<path d="M0 0 C2.75 -0.3125 2.75 -0.3125 6 0 C9.10056948 2.78902015 10.24610971 5.01867778 10.48101807 9.09394836 C10.49256242 10.73359597 10.48209316 12.37349015 10.45410156 14.01293945 C10.45468567 14.91099808 10.45526978 15.8090567 10.45587158 16.73432922 C10.45309113 19.69437694 10.4220008 22.65341006 10.390625 25.61328125 C10.38316248 27.66879221 10.3774696 29.7243103 10.37347412 31.77983093 C10.35821875 37.18376386 10.31893744 42.58726516 10.2746582 47.99102783 C10.23370362 53.50763104 10.21546268 59.02430414 10.1953125 64.54101562 C10.15244336 75.36086648 10.08419293 86.18039731 10 97 C10.83249268 96.99476318 11.66498535 96.98952637 12.52270508 96.98413086 C15.61449935 96.96707775 18.70626964 96.95454435 21.7980957 96.94506836 C23.79314768 96.93757271 25.78817786 96.92486655 27.78320312 96.91210938 C29.03681641 96.90888672 30.29042969 96.90566406 31.58203125 96.90234375 C32.73936768 96.89710693 33.8967041 96.89187012 35.08911133 96.88647461 C38 97 38 97 41 98 C41.1953125 104.0546875 41.1953125 104.0546875 41 106 C38.60381438 108.39618562 37.14062903 108.60180093 33.875 109.375 C29.54459747 110.4914319 25.88962804 111.91424759 21.96875 114.02734375 C19.1107834 115.43931534 16.1298856 116.32595194 13.09375 117.27734375 C10.77260566 118.02121716 10.77260566 118.02121716 7.875 119.625 C4.5695729 121.20585644 1.62750932 121.63724907 -2 122 C-2 122.66 -2 123.32 -2 124 C-3.76858691 124.67260351 -5.53996016 125.33788395 -7.3125 126 C-8.29863281 126.37125 -9.28476562 126.7425 -10.30078125 127.125 C-13 128 -13 128 -16 128 C-16 128.66 -16 129.32 -16 130 C-16.85722656 130.38671875 -17.71445312 130.7734375 -18.59765625 131.171875 C-25.97915355 134.48492073 -25.97915355 134.48492073 -33.0625 138.375 C-36 140 -36 140 -40 140 C-40.33 140.99 -40.66 141.98 -41 143 C-42.56640625 144.140625 -42.56640625 144.140625 -44.5625 145.25 C-48.6030703 147.63066034 -51.91596848 150.44938091 -55.3359375 153.64453125 C-57 155 -57 155 -59 155 C-59.33 155.99 -59.66 156.98 -60 158 C-60.66 158 -61.32 158 -62 158 C-62.268125 158.721875 -62.53625 159.44375 -62.8125 160.1875 C-64 163 -64 163 -65.625 165.375 C-67.45727367 168.872977 -67.47972817 171.09364201 -67 175 C-64.1383378 181.6772118 -58.22406506 184.00422156 -52 187 C-50.906875 187.53625 -49.81375 188.0725 -48.6875 188.625 C-39.93748432 191.88771771 -31.0831977 194.23697782 -21.81640625 195.41015625 C-19 196 -19 196 -15.62109375 197.46484375 C-11.88154493 199.05021882 -8.49375467 199.80686902 -4.5 200.5 C0.76610251 201.41395167 5.10553834 202.88422256 10 205 C12.2787506 205.5372453 14.57183171 206.01708039 16.875 206.4375 C21.93768827 207.45324527 26.14993982 208.81287131 30.7578125 211.08203125 C34.98273709 212.81174776 39.50115623 213.36091191 44 214 C44 214.66 44 215.32 44 216 C45.33333333 216.33333333 46.66666667 216.66666667 48 217 C50.08333333 217.52083333 52.16666667 218.04166667 54.25 218.5625 C55.86648438 218.96662109 55.86648438 218.96662109 57.515625 219.37890625 C58.33546875 219.58386719 59.1553125 219.78882813 60 220 C60 220.66 60 221.32 60 222 C60.87011719 222.11730469 61.74023438 222.23460937 62.63671875 222.35546875 C65.97372982 222.99496564 68.70061438 223.96693232 71.8125 225.3125 C72.85664063 225.76238281 73.90078125 226.21226562 74.9765625 226.67578125 C75.97429687 227.11277344 76.97203125 227.54976562 78 228 C78.81210937 228.34417969 79.62421875 228.68835938 80.4609375 229.04296875 C103.81903777 239.08285396 125.79996242 254.15282073 136 278 C137.83385973 282.61224921 138.38678987 286.82124338 138.375 291.75 C138.37338867 292.45519775 138.37177734 293.16039551 138.37011719 293.88696289 C138.2263784 300.04166038 136.75793205 304.58838762 134 310 C133.35033021 311.54005389 132.70444557 313.08171043 132.0625 314.625 C130.06602613 319.02492125 127.73227807 323.01807538 125 327 C124.40832031 327.87140625 123.81664062 328.7428125 123.20703125 329.640625 C118.68936085 335.98062023 113.71539252 341.59379943 108.25 347.125 C107.6120752 347.77670166 106.97415039 348.42840332 106.31689453 349.09985352 C103.09433544 352.29075268 100.48592893 354.75010377 96 356 C96 356.66 96 357.32 96 358 C93.91796875 359.91015625 93.91796875 359.91015625 91.1875 362.0625 C90.29417969 362.77535156 89.40085937 363.48820312 88.48046875 364.22265625 C86 366 86 366 83 367 C82.566875 367.433125 82.13375 367.86625 81.6875 368.3125 C79.36739482 370.63260518 76.78535904 372.28137421 74 374 C73.34 374 72.68 374 72 374 C72 374.66 72 375.32 72 376 C69.09451118 378.04169485 67.59857954 379 64 379 C64 379.66 64 380.32 64 381 C62.54754505 381.78185341 61.08756083 382.54971828 59.625 383.3125 C58.81289063 383.74175781 58.00078125 384.17101562 57.1640625 384.61328125 C48.85490946 388.25494709 41.37759101 389.43895617 32.33961487 389.38095093 C31.20612687 389.3856309 30.07263886 389.39031087 28.90480274 389.39513266 C25.12855278 389.40704385 21.35266831 389.39764048 17.57641602 389.38818359 C14.86062374 389.39060139 12.14484671 389.39748546 9.42906189 389.40411377 C2.83332902 389.41741604 -3.76230113 389.41458997 -10.35803794 389.40587585 C-15.71676409 389.39908987 -21.07546153 389.39818651 -26.43419075 389.4014473 C-27.19796938 389.401907 -27.96174802 389.40236669 -28.74867146 389.40284032 C-30.30037093 389.40379952 -31.8520704 389.40477216 -33.40376986 389.4057581 C-47.93294928 389.41430066 -62.46207179 389.40449359 -76.99124188 389.388357 C-89.46188171 389.37493596 -101.93243783 389.37729877 -114.40307617 389.39111328 C-128.89251221 389.40715666 -143.38189856 389.41349664 -157.87134224 389.40427649 C-159.41506802 389.40332084 -160.95879381 389.40237773 -162.50251961 389.4014473 C-163.64180324 389.40075306 -163.64180324 389.40075306 -164.8041027 389.40004479 C-170.16087651 389.39745257 -175.51761881 389.40183048 -180.87438774 389.40888596 C-187.39546218 389.41728653 -193.91642824 389.41505057 -200.43749022 389.39904372 C-203.76554725 389.39114424 -207.09327309 389.38970507 -210.42135239 389.39799118 C-214.02391803 389.40613669 -217.62596797 389.39596984 -221.22850037 389.38095093 C-222.28684237 389.38764309 -223.34518438 389.39433526 -224.43559736 389.40123022 C-225.3968207 389.39340697 -226.35804403 389.38558373 -227.34839535 389.37752342 C-228.18025795 389.37703637 -229.01212055 389.37654931 -229.86919111 389.37604749 C-232.50538409 388.91080926 -233.38655696 388.09881424 -235 386 C-235.66622679 382.93535675 -235.61803322 380.07299849 -235 377 C-231.82566993 374.09019744 -230.3475117 374 -226 374 C-226 373.34 -226 372.68 -226 372 C-225.16597656 371.82984375 -224.33195313 371.6596875 -223.47265625 371.484375 C-217.34204869 370.16415252 -211.72339545 368.68995003 -206.0625 365.984375 C-201.41169219 363.76467127 -197.22431492 362 -192 362 C-192 361.34 -192 360.68 -192 360 C-190.87464844 359.74476563 -190.87464844 359.74476563 -189.7265625 359.484375 C-183.7620088 358.07211291 -178.14985315 356.41127648 -172.5 354.0390625 C-166.54805991 351.5652874 -160.45327944 349.45196597 -154.3125 347.5 C-151.41344414 346.55588269 -148.81142788 345.43857396 -146.125 344 C-142.12052737 341.8940622 -138.04104075 340.88951721 -133.671875 339.78515625 C-130.4856173 338.84884368 -127.75870351 337.48224132 -124.84765625 335.91015625 C-122.027097 334.52074757 -119.02321915 333.8299033 -116 333 C-115.01 332.34 -114.02 331.68 -113 331 C-110.3125 330.875 -110.3125 330.875 -108 331 C-108 330.34 -108 329.68 -108 329 C-106.9275 328.608125 -105.855 328.21625 -104.75 327.8125 C-97.41122648 325.05883631 -90.18739151 322.01557527 -83.0625 318.75 C-80.0613005 317.39673186 -77.2925498 316.42484513 -74 316 C-74 315.34 -74 314.68 -74 314 C-73.33355469 313.79246094 -72.66710937 313.58492188 -71.98046875 313.37109375 C-63.02310419 310.37695371 -54.36326121 306.17468378 -48 299 C-46.73949736 295.21849208 -46.27945803 291.91051419 -47 288 C-50.41223258 281.2636737 -56.82485434 275.39171522 -64 273 C-64.33 272.34 -64.66 271.68 -65 271 C-65.99 270.67 -66.98 270.34 -68 270 C-68 269.34 -68 268.68 -68 268 C-68.70125 267.72929687 -69.4025 267.45859375 -70.125 267.1796875 C-73.14872826 265.93897291 -76.06782288 264.56864843 -79 263.125 C-80.010625 262.63257813 -81.02125 262.14015625 -82.0625 261.6328125 C-85 260 -85 260 -87.5625 257.9296875 C-90.02964008 255.97653494 -92.07703304 255.09946464 -95 254 C-96.97628815 252.90684879 -98.93394212 251.77955131 -100.875 250.625 C-101.92429687 250.00496094 -102.97359375 249.38492188 -104.0546875 248.74609375 C-105.02664063 248.16988281 -105.99859375 247.59367188 -107 247 C-111.61607228 244.3044641 -111.61607228 244.3044641 -116.375 241.875 C-118 241 -118 241 -119 239 C-120.69804111 237.98753937 -122.43415587 237.03834796 -124.1875 236.125 C-141.4818645 226.87762772 -163.19719153 210.48824984 -169.5 190.9375 C-170 188 -170 188 -169 186 C-169.66 186 -170.32 186 -171 186 C-171.48934236 177.96662965 -171.09660017 171.99729842 -167 165 C-166.56429687 164.24976563 -166.12859375 163.49953125 -165.6796875 162.7265625 C-150.87573734 139.02406306 -119.67886129 125.98386121 -94 118 C-93.34 118 -92.68 118 -92 118 C-92 117.34 -92 116.68 -92 116 C-91.32195312 115.82984375 -90.64390625 115.6596875 -89.9453125 115.484375 C-85.03566905 114.20596369 -80.3564011 112.80939682 -75.6875 110.8125 C-71.9702143 109.25325576 -69.08762556 108.56972363 -65 109 C-65 108.34 -65 107.68 -65 107 C-60.545 106.505 -60.545 106.505 -56 106 C-56 105.34 -56 104.68 -56 104 C-52.61143074 103.01250274 -49.22001207 102.03816775 -45.8203125 101.08984375 C-43.61422582 100.4605 -41.41515193 99.80201319 -39.2421875 99.06640625 C-28.54776506 95.73038492 -17.07514358 96.73803336 -6 97 C-6.99 97.495 -6.99 97.495 -8 98 C-8 98.66 -8 99.32 -8 100 C-13.7683546 102.21859792 -19.5859552 104.21414739 -25.4609375 106.1328125 C-27.95270755 106.92046824 -27.95270755 106.92046824 -30 108 C-30.66 107.67 -31.32 107.34 -32 107 C-32 107.66 -32 108.32 -32 109 C-36.455 109.99 -36.455 109.99 -41 111 C-33.40329287 111.55858141 -28.45666178 110.32776824 -21.56640625 107.09375 C-19 106 -19 106 -16 106 C-16 105.34 -16 104.68 -16 104 C-15.07316406 103.79503906 -14.14632812 103.59007812 -13.19140625 103.37890625 C-11.99386719 103.10949219 -10.79632813 102.84007812 -9.5625 102.5625 C-8.36753906 102.29566406 -7.17257812 102.02882813 -5.94140625 101.75390625 C-3.1295314 101.29933252 -3.1295314 101.29933252 -2 100 C-1.8799556 96.96717401 -1.82450359 93.95611803 -1.81054688 90.92211914 C-1.80225357 89.96933578 -1.79396027 89.01655243 -1.78541565 88.03489685 C-1.76797258 85.95868178 -1.75281755 83.88244655 -1.73963928 81.80620003 C-1.71868409 78.5248349 -1.6916555 75.243571 -1.66296387 71.96226501 C-1.60315047 64.9957152 -1.5510537 58.02911879 -1.5 51.0625 C-1.44085721 42.99650413 -1.37860832 34.93055803 -1.30812073 26.86465263 C-1.28146653 23.62398228 -1.26069874 20.38330717 -1.2401123 17.14259338 C-1.22351384 15.16415162 -1.2066424 13.18571211 -1.18945312 11.20727539 C-1.1831765 9.84585922 -1.1831765 9.84585922 -1.17677307 8.4569397 C-1.11384131 2.22768262 -1.11384131 2.22768262 0 0 Z " fill="#55B1F0" transform="translate(376,68)"/>
<path d="M0 0 C6.93 0 13.86 0 21 0 C21.495 0.99 21.495 0.99 22 2 C22.99 2.33 23.98 2.66 25 3 C25 3.66 25 4.32 25 5 C25.99 5.33 26.98 5.66 28 6 C28.02332606 30.75565069 28.04097773 55.51129974 28.05181217 80.26695919 C28.05697575 91.76057743 28.06401963 103.25418886 28.07543945 114.74780273 C28.08538439 124.76175187 28.09185297 134.77569608 28.09408849 144.78965002 C28.09539593 150.09545443 28.09848381 155.40124471 28.10573006 160.7070446 C28.11248728 165.69490771 28.11461757 170.68275081 28.11310768 175.67061806 C28.11338414 177.50690189 28.11539102 179.34318635 28.11920547 181.17946625 C28.12413808 183.67520616 28.1229999 186.17086924 28.12025452 188.66661072 C28.12316736 189.40297805 28.1260802 190.13934539 28.12908131 190.89802688 C28.11412121 195.88587879 28.11412121 195.88587879 27 197 C24.07219673 197.37338382 21.18974972 197.65520563 18.25 197.875 C17.43789063 197.96007812 16.62578125 198.04515625 15.7890625 198.1328125 C11.33852772 198.45174333 9.65734807 198.52050881 6.03515625 195.65234375 C5.36355469 194.77707031 4.69195313 193.90179688 4 193 C3.401875 192.236875 2.80375 191.47375 2.1875 190.6875 C1.795625 190.130625 1.40375 189.57375 1 189 C-3.24605105 190.74837396 -7.06727734 192.61966787 -11 195 C-14.31595013 196.49217756 -17.44146857 197.30806333 -21 198 C-21.33 198.33 -21.66 198.66 -22 199 C-23.63472882 199.08700342 -25.27314055 199.10701063 -26.91015625 199.09765625 C-27.89951172 199.09443359 -28.88886719 199.09121094 -29.90820312 199.08789062 C-30.94912109 199.07951172 -31.99003906 199.07113281 -33.0625 199.0625 C-34.10728516 199.05798828 -35.15207031 199.05347656 -36.22851562 199.04882812 C-38.8190666 199.03699913 -41.40950559 199.02051689 -44 199 C-44 198.34 -44 197.68 -44 197 C-45.98 197 -47.96 197 -50 197 C-50 196.34 -50 195.68 -50 195 C-51.65 195.33 -53.3 195.66 -55 196 C-55 195.34 -55 194.68 -55 194 C-56.299375 193.62875 -56.299375 193.62875 -57.625 193.25 C-61.24665198 191.90864742 -63.97169247 190.39447572 -67 188 C-67.625 185.875 -67.625 185.875 -68 184 C-69.32560367 183.31809301 -70.66064472 182.65448426 -72 182 C-73.43197043 180.92137292 -74.82777947 179.79339025 -76.1875 178.625 C-76.88230469 178.03976562 -77.57710937 177.45453125 -78.29296875 176.8515625 C-80.1599768 174.82647825 -80.59064682 173.68234055 -81 171 C-81.185625 170.0925 -81.37125 169.185 -81.5625 168.25 C-81.7790625 167.13625 -81.7790625 167.13625 -82 166 C-82.66 166 -83.32 166 -84 166 C-85.90283903 160.63399393 -87.4643452 155.33804529 -88.5703125 149.75 C-88.84383855 147.98346216 -88.84383855 147.98346216 -90 147 C-90.2835651 143.17444899 -90.23195395 139.33478608 -90.25 135.5 C-90.270625 134.43523437 -90.29125 133.37046875 -90.3125 132.2734375 C-90.34196633 126.27703856 -89.85838193 121.3228574 -87.64746094 115.72460938 C-86.88284267 113.99495735 -86.88284267 113.99495735 -87 112 C-86.34 112 -85.68 112 -85 112 C-84.67 110.02 -84.34 108.04 -84 106 C-83.34 106 -82.68 106 -82 106 C-82.33 105.01 -82.66 104.02 -83 103 C-81.515 102.505 -81.515 102.505 -80 102 C-79.63646676 100.67458215 -79.30665016 99.33972183 -79 98 C-77.74072266 96.35253906 -77.74072266 96.35253906 -76.1640625 94.765625 C-75.59429688 94.19199219 -75.02453125 93.61835938 -74.4375 93.02734375 C-73.839375 92.44082031 -73.24125 91.85429687 -72.625 91.25 C-71.73941406 90.34701172 -71.73941406 90.34701172 -70.8359375 89.42578125 C-70.26359375 88.85730469 -69.69125 88.28882813 -69.1015625 87.703125 C-68.57900879 87.18395508 -68.05645508 86.66478516 -67.51806641 86.12988281 C-66 85 -66 85 -63 85 C-63 84.34 -63 83.68 -63 83 C-56.375 80 -56.375 80 -53 80 C-53 79.34 -53 78.68 -53 78 C-46.76843271 73.84562181 -38.80108439 74.8762758 -31.5625 74.9375 C-30.54478516 74.94201172 -29.52707031 74.94652344 -28.47851562 74.95117188 C-25.98561491 74.96287563 -23.49283926 74.97927152 -21 75 C-21 75.66 -21 76.32 -21 77 C-20.360625 76.773125 -19.72125 76.54625 -19.0625 76.3125 C-14.66495984 75.86377141 -11.00478943 77.21397406 -7 79 C-6.34 79.66 -5.68 80.32 -5 81 C-3.01612292 82.03161608 -1.01723344 83.03523618 1 84 C0.99777939 83.11716843 0.99555878 82.23433685 0.99327087 81.32475281 C0.97324644 73.01106707 0.95801485 64.69738941 0.94818783 56.38368511 C0.94296586 52.10937663 0.93588062 47.83508805 0.92456055 43.56079102 C0.91370735 39.43704342 0.90771798 35.31331499 0.90512276 31.18955421 C0.90327291 29.61506664 0.8996607 28.04058013 0.89426994 26.46610069 C0.88702726 24.26342871 0.88601043 22.06083624 0.88647461 19.8581543 C0.884254 18.60350876 0.88203339 17.34886322 0.87974548 16.05619812 C1 13 1 13 2 10 C1.01 9.67 0.02 9.34 -1 9 C-0.67 6.03 -0.34 3.06 0 0 Z " fill="#030303" transform="translate(951,128)"/>
<path d="M0 0 C0.99 0.99 0.99 0.99 2 2 C2.70125 2.2475 3.4025 2.495 4.125 2.75 C11.15323269 5.80575334 16.41339248 10.97562173 21 17 C21.60070313 17.78761719 22.20140625 18.57523438 22.8203125 19.38671875 C26.53222775 24.45759879 29.13179515 29.00207916 31 35 C31.37125 36.0725 31.7425 37.145 32.125 38.25 C33.132821 42.56923285 33.47288347 46.76224562 33.77734375 51.1796875 C33.9702651 54.1565305 33.9702651 54.1565305 34.625 57.6875 C34.810625 58.8321875 34.810625 58.8321875 35 60 C34.67 60.33 34.34 60.66 34 61 C33.76572222 63.01594582 33.58663876 65.038474 33.4375 67.0625 C33.31181641 68.71958984 33.31181641 68.71958984 33.18359375 70.41015625 C33.12300781 71.26480469 33.06242187 72.11945313 33 73 C32.34 73 31.68 73 31 73 C31.226875 73.721875 31.45375 74.44375 31.6875 75.1875 C32.09142992 78.82286929 31.01387731 80.01647806 29 83 C28.31724569 84.66014119 27.65293571 86.32790635 27 88 C23.52108681 96.13223657 20.07229698 101.67447517 13 107 C11.95639482 107.95622197 10.91454885 108.91436978 9.875 109.875 C6.78148174 112.1615135 4.79589754 112.72886446 1 113 C1 113.66 1 114.32 1 115 C-1.70879335 116.35439668 -4.00933268 116.06501451 -7 116 C-7 116.66 -7 117.32 -7 118 C-8.65 118 -10.3 118 -12 118 C-12.33 118.66 -12.66 119.32 -13 120 C-35.36915602 120.80264706 -35.36915602 120.80264706 -44 116 C-45.28677459 115.46719489 -46.57819868 114.94541385 -47.875 114.4375 C-50.62200852 113.17387608 -52.63963447 111.84435489 -55 110 C-55.00808685 110.91010834 -55.01617371 111.82021667 -55.02450562 112.75790405 C-55.10234889 121.32220083 -55.18960811 129.8863382 -55.28752708 138.45042992 C-55.33753753 142.85363979 -55.38386693 147.25682512 -55.421875 151.66015625 C-55.45866811 155.90721588 -55.50501133 160.15407244 -55.55806351 164.40095901 C-55.57663935 166.02368239 -55.59173545 167.64644935 -55.60334396 169.26923752 C-55.62015225 171.53696372 -55.64917295 173.80422158 -55.68115234 176.07177734 C-55.69447601 177.36417328 -55.70779968 178.65656921 -55.7215271 179.98812866 C-56 183 -56 183 -58 185 C-58.33 185.66 -58.66 186.32 -59 187 C-59.99 187.33 -60.98 187.66 -62 188 C-62.33 188.66 -62.66 189.32 -63 190 C-66.87117257 191.10705664 -70.67987217 191.16465149 -74.6875 191.1875 C-75.82574219 191.20167969 -76.96398438 191.21585938 -78.13671875 191.23046875 C-81 191 -81 191 -83 189 C-83.19294065 186.57862891 -83.26059992 184.27216459 -83.24050903 181.85006714 C-83.24221788 181.10515176 -83.24392673 180.36023638 -83.24568737 179.59274781 C-83.24899523 177.08370826 -83.23795742 174.57493309 -83.22705078 172.06591797 C-83.22648695 170.27254238 -83.22680268 168.47916633 -83.22793579 166.68579102 C-83.22851139 161.80585965 -83.21672367 156.92602591 -83.20278788 152.04611731 C-83.19031493 146.95051914 -83.18911274 141.85491893 -83.18673706 136.75930786 C-83.18051216 127.10496011 -83.16408772 117.45065747 -83.14403808 107.79632962 C-83.12171044 96.80738133 -83.11069355 85.81843094 -83.10064721 74.82946563 C-83.07972235 52.21961871 -83.04452681 29.60981188 -83 7 C-83.66 7 -84.32 7 -85 7 C-84.67 3.7 -84.34 0.4 -84 -3 C-80.45750883 -3.10825949 -76.91834751 -3.18744405 -73.375 -3.25 C-72.37597656 -3.28351563 -71.37695312 -3.31703125 -70.34765625 -3.3515625 C-64.18951311 -3.43312731 -60.69142487 -3.09930328 -56 1 C-55.34 1.66 -54.68 2.32 -54 3 C-51.43694964 2.73485686 -49.88089128 1.92595945 -47.6875 0.5625 C-44.53714006 -1.26910461 -41.52281521 -2.1032834 -38 -3 C-37.36247803 -3.17813232 -36.72495605 -3.35626465 -36.06811523 -3.53979492 C-24.67109614 -6.07590412 -10.56191787 -4.91335398 0 0 Z " fill="#030203" transform="translate(1601,207)"/>
<path d="M0 0 C0.99 0.99 0.99 0.99 2 2 C3.9931567 2.02375926 3.9931567 2.02375926 6.125 1.625 C8.043125 1.315625 8.043125 1.315625 10 1 C10.495 2.485 10.495 2.485 11 4 C13.64 4.33 16.28 4.66 19 5 C19 5.66 19 6.32 19 7 C20.36125 7.2165625 20.36125 7.2165625 21.75 7.4375 C24.21476956 7.86409473 26.58847107 8.35074221 29 9 C29 9.99 29 10.98 29 12 C29.5775 12.12375 30.155 12.2475 30.75 12.375 C33.07394051 13.02053903 34.94945654 13.72724889 37 15 C37.495 16.485 37.495 16.485 38 18 C39.485 18.495 39.485 18.495 41 19 C42.04644066 20.63790712 43.0398183 22.31008021 44 24 C45.0828125 25.3303125 45.0828125 25.3303125 46.1875 26.6875 C48 29 48 29 48 31 C48.66 31 49.32 31 50 31 C50.495 33.97 50.495 33.97 51 37 C51.66 37 52.32 37 53 37 C54.35439668 39.70879335 54.06501451 42.00933268 54 45 C54.66 45 55.32 45 56 45 C55.95875 45.78375 55.9175 46.5675 55.875 47.375 C55.71271266 50.16116119 55.71271266 50.16116119 58 52 C58.22705078 54.52197266 58.22705078 54.52197266 58.1953125 57.6640625 C58.18886719 58.78554688 58.18242188 59.90703125 58.17578125 61.0625 C58.15064453 62.8259375 58.15064453 62.8259375 58.125 64.625 C58.11597656 65.80835938 58.10695313 66.99171875 58.09765625 68.2109375 C58.07402812 71.14082523 58.04108514 74.0703134 58 77 C57.01 77 56.02 77 55 77 C55.66 78.65 56.32 80.3 57 82 C55.515 82.495 55.515 82.495 54 83 C53.896875 84.051875 53.79375 85.10375 53.6875 86.1875 C53.01784508 89.90104094 52.21100393 91.99303465 50 95 C49.01 95.495 49.01 95.495 48 96 C47.9175 96.928125 47.835 97.85625 47.75 98.8125 C47 102 47 102 44.25 104.0625 C43.1775 104.701875 42.105 105.34125 41 106 C37.15863481 109.44611473 37.15863481 109.44611473 35 114 C33.02 113.505 33.02 113.505 31 113 C31 113.99 31 114.98 31 116 C29.02 116.66 27.04 117.32 25 118 C25 118.66 25 119.32 25 120 C20.8803623 121.29243536 17.33168317 122.26252625 13 122 C13 122.66 13 123.32 13 124 C11.02 123.67 9.04 123.34 7 123 C7 123.99 7 124.98 7 126 C3.35432287 126.08816905 -0.29107474 126.14077948 -3.9375 126.1875 C-4.95908203 126.21263672 -5.98066406 126.23777344 -7.03320312 126.26367188 C-13.65441638 126.32713398 -18.86573782 125.44160316 -25 123 C-25.969375 122.731875 -26.93875 122.46375 -27.9375 122.1875 C-36.73845001 118.77488673 -43.38482092 113.21438526 -49.875 106.5 C-50.6071875 105.76652344 -51.339375 105.03304687 -52.09375 104.27734375 C-58.00828461 98.26602584 -62.30070174 93.74122823 -63 85 C-63.66 85 -64.32 85 -65 85 C-65.144375 84.071875 -65.28875 83.14375 -65.4375 82.1875 C-65.92100111 78.99274889 -65.92100111 78.99274889 -67 76 C-68.08343928 71.71202199 -68.14965199 67.52127195 -68.125 63.125 C-68.12886719 62.44308594 -68.13273438 61.76117188 -68.13671875 61.05859375 C-68.12824419 56.60944752 -67.72218388 52.39041945 -67 48 C-65.515 47.505 -65.515 47.505 -64 47 C-64.20625 46.46375 -64.4125 45.9275 -64.625 45.375 C-65.56498407 39.42176756 -61.68559545 34.77697352 -58.4375 30.1484375 C-56.97045059 28.07810313 -56.97045059 28.07810313 -56.0546875 25.9453125 C-54.75840428 23.55439012 -53.21248005 22.23300231 -51.125 20.5 C-48.28915088 18.10241847 -45.57491762 15.68220585 -43 13 C-42.67 13.33 -42.34 13.66 -42 14 C-41.67 13.34 -41.34 12.68 -41 12 C-39.34928604 10.97388051 -37.68029994 9.97691857 -36 9 C-35.38125 8.46375 -34.7625 7.9275 -34.125 7.375 C-31.19461906 5.47887116 -28.43029491 5.32983605 -25 5 C-25 4.34 -25 3.68 -25 3 C-24.21625 2.87625 -23.4325 2.7525 -22.625 2.625 C-20.64044915 2.28283606 -18.65751728 1.92408589 -16.69140625 1.48828125 C-11.20677572 0.28183366 -5.62340063 -0.82411906 0 0 Z " fill="#020202" transform="translate(783,201)"/>
<path d="M0 0 C0 0.99 0 1.98 0 3 C0.763125 2.79375 1.52625 2.5875 2.3125 2.375 C5 2 5 2 8 4 C8.93714844 4.29390625 9.87429688 4.5878125 10.83984375 4.890625 C19.9659204 8.09434041 26.75823979 15.13735969 32 23 C32.38499891 24.65549531 32.72793135 26.3222433 33 28 C33.66 28 34.32 28 35 28 C35 28.99 35 29.98 35 31 C35.66 31.33 36.32 31.66 37 32 C36.67 34.31 36.34 36.62 36 39 C36.66 39 37.32 39 38 39 C38 63.42 38 87.84 38 113 C38.66 113 39.32 113 40 113 C40.02689216 114.47906892 40.04634621 115.95827483 40.0625 117.4375 C40.07410156 118.26121094 40.08570313 119.08492188 40.09765625 119.93359375 C40 122 40 122 39 123 C35.25991068 123.36387988 31.50539487 123.37165571 27.75 123.4375 C26.69941406 123.48326172 25.64882812 123.52902344 24.56640625 123.57617188 C23.54933594 123.59099609 22.53226563 123.60582031 21.484375 123.62109375 C20.55334961 123.6461499 19.62232422 123.67120605 18.66308594 123.69702148 C14.85355236 122.69993509 12.96512722 120.26914755 11 117 C10.3742218 113.50952148 10.3742218 113.50952148 10.37231445 109.62109375 C10.36140778 108.55158981 10.36140778 108.55158981 10.35028076 107.46047974 C10.33177736 105.11897234 10.34771967 102.77900653 10.36328125 100.4375 C10.35523523 98.80133711 10.34471372 97.1651847 10.33183289 95.52905273 C10.30332962 91.2306168 10.30270034 86.93266345 10.30969238 82.63415527 C10.31702449 75.75504325 10.28558458 68.87608669 10.24724388 61.99710083 C10.23842201 59.60073681 10.24368336 57.20471267 10.25080872 54.80834961 C10.24742261 53.33186756 10.24367286 51.85538629 10.23950195 50.37890625 C10.24125931 49.0957251 10.24301666 47.81254395 10.24482727 46.49047852 C9.90280404 41.61428671 8.49597824 37.21196328 6 33 C5.34 32.67 4.68 32.34 4 32 C4 31.34 4 30.68 4 30 C3.38125 29.855625 2.7625 29.71125 2.125 29.5625 C0 29 0 29 -2 28 C-2 27.34 -2 26.68 -2 26 C-2.99 26.33 -3.98 26.66 -5 27 C-5.33 26.01 -5.66 25.02 -6 24 C-6.66 24.33 -7.32 24.66 -8 25 C-9.92180733 24.90117621 -11.84352629 24.7994102 -13.76416016 24.67993164 C-23.80063807 24.18070249 -31.61706345 26.07092364 -40.02990723 31.68675232 C-42 33 -42 33 -44.07113647 34.16040039 C-48.01438644 36.81493635 -49.75896985 38.83782533 -50.73965454 43.56639099 C-51.12772973 48.14367004 -51.0571186 52.71944459 -51 57.30859375 C-51.00752453 59.00254679 -51.01856378 60.69648753 -51.03295898 62.39039612 C-51.06131505 66.83121993 -51.04215513 71.27059679 -51.01287842 75.71136475 C-50.99143893 80.24972847 -51.01523829 84.78783456 -51.03515625 89.32617188 C-51.06755001 98.21777386 -51.04971562 107.10850434 -51 116 C-50.34 116.33 -49.68 116.66 -49 117 C-48.957279 118.66611905 -48.95936168 120.33382885 -49 122 C-50.67527538 123.67527538 -52.72786922 123.13005577 -55.0234375 123.1328125 C-56.044375 123.13410156 -57.0653125 123.13539063 -58.1171875 123.13671875 C-59.19226562 123.13285156 -60.26734375 123.12898438 -61.375 123.125 C-62.44234375 123.12886719 -63.5096875 123.13273437 -64.609375 123.13671875 C-65.63289063 123.13542969 -66.65640625 123.13414062 -67.7109375 123.1328125 C-69.12318604 123.13112061 -69.12318604 123.13112061 -70.56396484 123.12939453 C-73 123 -73 123 -76 122 C-76 120.68 -76 119.36 -76 118 C-76.66 118 -77.32 118 -78 118 C-78.0154612 116.6193763 -78.0154612 116.6193763 -78.03123474 115.21086121 C-78.12914415 106.54392274 -78.2316493 97.87705351 -78.33933926 89.21023083 C-78.39454319 84.75435549 -78.44795919 80.29847356 -78.49731445 75.8425293 C-78.54499527 71.54366116 -78.59733949 67.24487297 -78.65294075 62.94610023 C-78.67334744 61.30464985 -78.69206332 59.66317755 -78.70907402 58.02168846 C-78.73315533 55.72555996 -78.76320477 53.42958233 -78.79467773 51.13354492 C-78.81022202 49.82560471 -78.8257663 48.51766449 -78.84178162 47.17008972 C-78.85898568 43.97546802 -78.85898568 43.97546802 -80 41 C-79.505 40.01 -79.505 40.01 -79 39 C-79.66 39 -80.32 39 -81 39 C-81.39832031 38.16855469 -81.39832031 38.16855469 -81.8046875 37.3203125 C-82.15789062 36.59585938 -82.51109375 35.87140625 -82.875 35.125 C-83.22304687 34.40570313 -83.57109375 33.68640625 -83.9296875 32.9453125 C-84.96557543 30.84864981 -84.96557543 30.84864981 -87 29 C-89.57061311 28.35232207 -89.57061311 28.35232207 -92 28 C-92 27.34 -92 26.68 -92 26 C-92.62044189 25.97494385 -93.24088379 25.9498877 -93.88012695 25.92407227 C-96.69112397 25.80803279 -99.50179241 25.68534241 -102.3125 25.5625 C-103.28896484 25.52318359 -104.26542969 25.48386719 -105.27148438 25.44335938 C-106.67817383 25.38051758 -106.67817383 25.38051758 -108.11328125 25.31640625 C-108.97735596 25.27974854 -109.84143066 25.24309082 -110.73168945 25.20532227 C-113 25 -113 25 -116 24 C-116 24.99 -116 25.98 -116 27 C-117.051875 27.103125 -118.10375 27.20625 -119.1875 27.3125 C-122.90212333 27.98235011 -124.867691 29.03112006 -128 31 C-128.66 30.67 -129.32 30.34 -130 30 C-130 30.99 -130 31.98 -130 33 C-130.66 33.66 -131.32 34.32 -132 35 C-133.32 35 -134.64 35 -136 35 C-136.433125 35.928125 -136.433125 35.928125 -136.875 36.875 C-138 39 -138 39 -140 41 C-140.21199495 43.47673051 -140.30093833 45.84464068 -140.30297852 48.32373047 C-140.31141785 49.07837585 -140.31985718 49.83302124 -140.32855225 50.61053467 C-140.35440514 53.11275846 -140.36648964 55.61486406 -140.37890625 58.1171875 C-140.39507612 59.85353536 -140.41225557 61.58987409 -140.43040466 63.32620239 C-140.47616896 67.90476251 -140.51092791 72.4833348 -140.54260254 77.06201172 C-140.59439524 84.38416507 -140.65968142 91.70618336 -140.73081779 99.02817154 C-140.75364027 101.58736242 -140.76992146 104.14653632 -140.78553772 106.70578003 C-140.79894823 108.2763487 -140.81256337 109.84691564 -140.82641602 111.41748047 C-140.83033607 112.48523209 -140.83033607 112.48523209 -140.83433533 113.57455444 C-140.86976309 116.95844862 -141.17073988 119.68295954 -142 123 C-150.25 123 -158.5 123 -167 123 C-167.97154596 120.08536213 -168.12565237 118.23637048 -168.12698364 115.20419312 C-168.12980347 114.21705826 -168.13262329 113.2299234 -168.13552856 112.21287537 C-168.13350433 111.13119583 -168.1314801 110.0495163 -168.12939453 108.93505859 C-168.13114685 107.79505905 -168.13289917 106.65505951 -168.13470459 105.48051453 C-168.1391148 101.70314015 -168.13618839 97.92581238 -168.1328125 94.1484375 C-168.13348568 91.53195181 -168.13445583 88.91546619 -168.13571167 86.29898071 C-168.13753107 80.81292208 -168.13513253 75.3268769 -168.13037109 69.84082031 C-168.12492349 63.49067845 -168.12669566 57.14056866 -168.1321975 50.79042757 C-168.13727373 44.68806619 -168.13674754 38.58571908 -168.13381577 32.48335648 C-168.13314636 29.88289002 -168.13397539 27.28242275 -168.13629532 24.68195724 C-168.13881992 21.0566665 -168.13498423 17.4314384 -168.12939453 13.80615234 C-168.13141876 12.72042435 -168.13344299 11.63469635 -168.13552856 10.5160675 C-168.13270874 9.5345723 -168.12988892 8.55307709 -168.12698364 7.5418396 C-168.12660662 6.68385962 -168.12622959 5.82587963 -168.12584114 4.94190025 C-168 3 -168 3 -167 2 C-164.09291389 1.87231389 -161.22010135 1.8147769 -158.3125 1.8125 C-157.50876953 1.80025391 -156.70503906 1.78800781 -155.87695312 1.77539062 C-151.17884007 1.76386623 -147.41800186 2.19425772 -143 4 C-142.87625 5.134375 -142.7525 6.26875 -142.625 7.4375 C-142.41875 8.613125 -142.2125 9.78875 -142 11 C-139.87060172 12.35026777 -139.87060172 12.35026777 -136.875 11.0625 C-135.92625 10.711875 -134.9775 10.36125 -134 10 C-134 9.34 -134 8.68 -134 8 C-132.02 7.67 -130.04 7.34 -128 7 C-128 6.34 -128 5.68 -128 5 C-125.36 4.67 -122.72 4.34 -120 4 C-120 3.34 -120 2.68 -120 2 C-118.68 2.33 -117.36 2.66 -116 3 C-116 2.34 -116 1.68 -116 1 C-111.72918086 0.97102565 -107.45838691 0.95321004 -103.1875 0.9375 C-101.36508789 0.92493164 -101.36508789 0.92493164 -99.50585938 0.91210938 C-97.76079102 0.90727539 -97.76079102 0.90727539 -95.98046875 0.90234375 C-94.90692139 0.89710693 -93.83337402 0.89187012 -92.72729492 0.88647461 C-90 1 -90 1 -87 2 C-86.01 2 -85.02 2 -84 2 C-84 2.66 -84 3.32 -84 4 C-82.68 4 -81.36 4 -80 4 C-80 4.66 -80 5.32 -80 6 C-79.01 5.67 -78.02 5.34 -77 5 C-75.17578125 5.92578125 -75.17578125 5.92578125 -73.3125 7.3125 C-72.37857422 7.98732422 -72.37857422 7.98732422 -71.42578125 8.67578125 C-70.95527344 9.11277344 -70.48476562 9.54976562 -70 10 C-70 10.66 -70 11.32 -70 12 C-69.2575 12.2475 -68.515 12.495 -67.75 12.75 C-64.76976913 14.10465039 -63.10080748 15.5101541 -61 18 C-61 18.66 -61 19.32 -61 20 C-60.38253906 19.62488281 -59.76507812 19.24976563 -59.12890625 18.86328125 C-53.48346625 15.45195753 -47.78954662 12.16047714 -42 9 C-42 8.34 -42 7.68 -42 7 C-40.906875 6.71125 -39.81375 6.4225 -38.6875 6.125 C-34.95986155 5.18106796 -34.95986155 5.18106796 -32 3 C-28.8125 2.875 -28.8125 2.875 -26 3 C-26 2.34 -26 1.68 -26 1 C-24.28103516 1.01740234 -24.28103516 1.01740234 -22.52734375 1.03515625 C-20.99739748 1.04454242 -19.46744942 1.05364173 -17.9375 1.0625 C-17.18533203 1.07087891 -16.43316406 1.07925781 -15.65820312 1.08789062 C-10.37901005 1.11074427 -5.22439224 0 0 0 Z " fill="#030303" transform="translate(1316,202)"/>
<path d="M0 0 C0.886875 -0.01417969 1.77375 -0.02835938 2.6875 -0.04296875 C5 0.1875 5 0.1875 7 2.1875 C8.9931567 2.21125926 8.9931567 2.21125926 11.125 1.8125 C13.043125 1.503125 13.043125 1.503125 15 1.1875 C15.495 2.6725 15.495 2.6725 16 4.1875 C16.99 3.8575 17.98 3.5275 19 3.1875 C19.99 3.8475 20.98 4.5075 22 5.1875 C23.05960938 5.41824219 24.11921875 5.64898437 25.2109375 5.88671875 C30.09528229 7.20469618 33.11123251 10.51837063 36.625 14 C37.26695313 14.61681641 37.90890625 15.23363281 38.5703125 15.86914062 C39.81939574 17.07343092 41.06094084 18.28560035 42.29394531 19.50634766 C43.37186063 20.56852924 44.46345882 21.61715596 45.57324219 22.64599609 C46.77064936 23.77051395 47.89376367 24.97318311 49 26.1875 C49 27.1775 49 28.1675 49 29.1875 C50.485 29.6825 50.485 29.6825 52 30.1875 C52 30.8475 52 31.5075 52 32.1875 C52.66 32.8475 53.32 33.5075 54 34.1875 C53.505 35.1775 53.505 35.1775 53 36.1875 C53.66 36.5175 54.32 36.8475 55 37.1875 C55 38.1775 55 39.1675 55 40.1875 C55.66 40.1875 56.32 40.1875 57 40.1875 C56.67 42.1675 56.34 44.1475 56 46.1875 C56.66 46.1875 57.32 46.1875 58 46.1875 C57.979375 47.363125 57.95875 48.53875 57.9375 49.75 C57.92756284 52.56718448 58.12624192 55.00105906 58.5625 57.8125 C59.02866931 61.40866324 59.12573341 63.73525089 58 67.1875 C56.13577743 69.42571784 54.5145742 70.56042258 52 72.1875 C49.625 72 49.625 72 48 71.1875 C48 72.1775 48 73.1675 48 74.1875 C20.94 74.1875 -6.12 74.1875 -34 74.1875 C-34 75.1775 -34 76.1675 -34 77.1875 C-33.01 77.1875 -32.02 77.1875 -31 77.1875 C-30.92910156 78.22519531 -30.85820313 79.26289063 -30.78515625 80.33203125 C-29.34842198 87.38703983 -23.56785922 92.69437246 -17.76953125 96.74609375 C-13.9888775 98.74245443 -10.23831762 99.76366824 -6 100.1875 C-6 100.8475 -6 101.5075 -6 102.1875 C-2.87507749 102.24541844 0.24970766 102.28106746 3.375 102.3125 C4.70917969 102.33763672 4.70917969 102.33763672 6.0703125 102.36328125 C7.34648438 102.37294922 7.34648438 102.37294922 8.6484375 102.3828125 C9.82672119 102.39852295 9.82672119 102.39852295 11.02880859 102.41455078 C13.234465 102.36740127 13.234465 102.36740127 15 100.1875 C16.65529424 99.80163749 18.32478747 99.47481843 20 99.1875 C27.92276362 97.15797413 27.92276362 97.15797413 35 93.1875 C35.33 92.5275 35.66 91.8675 36 91.1875 C39.47325181 90.0297494 42.36067448 90.11883348 46 90.1875 C46 91.5075 46 92.8275 46 94.1875 C46.99 93.8575 47.98 93.5275 49 93.1875 C49.12375 93.826875 49.2475 94.46625 49.375 95.125 C49.58125 95.805625 49.7875 96.48625 50 97.1875 C50.66 97.5175 51.32 97.8475 52 98.1875 C52 99.1775 52 100.1675 52 101.1875 C51.34 101.1875 50.68 101.1875 50 101.1875 C49.90976563 101.76628906 49.81953125 102.34507812 49.7265625 102.94140625 C47.60584497 109.49738785 39.60997053 114.62732639 34 118.1875 C32.67221044 118.54227285 31.33851252 118.87561359 30 119.1875 C28.865625 119.703125 27.73125 120.21875 26.5625 120.75 C23.30136344 122.06589721 21.43642959 122.49990269 18 122.1875 C18 122.8475 18 123.5075 18 124.1875 C17.21625 124.14625 16.4325 124.105 15.625 124.0625 C12.83883881 123.90021266 12.83883881 123.90021266 11 126.1875 C9.02880859 126.41455078 9.02880859 126.41455078 6.6484375 126.3828125 C5.37226562 126.37314453 5.37226562 126.37314453 4.0703125 126.36328125 C2.73613281 126.33814453 2.73613281 126.33814453 1.375 126.3125 C0.4778125 126.30347656 -0.419375 126.29445313 -1.34375 126.28515625 C-3.56276586 126.2615497 -5.78125077 126.2286231 -8 126.1875 C-8.33 125.5275 -8.66 124.8675 -9 124.1875 C-12.465 124.6825 -12.465 124.6825 -16 125.1875 C-16 124.1975 -16 123.2075 -16 122.1875 C-16.928125 122.496875 -16.928125 122.496875 -17.875 122.8125 C-18.57625 122.93625 -19.2775 123.06 -20 123.1875 C-20.99 122.1975 -20.99 122.1975 -22 121.1875 C-23.99117408 120.49491771 -25.9921136 119.83002365 -28 119.1875 C-29.33333333 118.52083333 -30.66666667 117.85416667 -32 117.1875 C-32.66 117.1875 -33.32 117.1875 -34 117.1875 C-34.66 115.8675 -35.32 114.5475 -36 113.1875 C-36.99 113.1875 -37.98 113.1875 -39 113.1875 C-39 112.5275 -39 111.8675 -39 111.1875 C-39.66 111.1875 -40.32 111.1875 -41 111.1875 C-42.25321177 109.70343344 -43.50181847 108.21471038 -44.70703125 106.69140625 C-45.99429913 105.05758281 -45.99429913 105.05758281 -48.0625 103.8125 C-52.25158494 100.29907392 -54.33357682 94.51888544 -55 89.1875 C-55.66 89.1875 -56.32 89.1875 -57 89.1875 C-59.125 83.5625 -59.125 83.5625 -58 80.1875 C-58.66 80.1875 -59.32 80.1875 -60 80.1875 C-60.97619785 74.48526496 -61.15087508 68.9662685 -61.125 63.1875 C-61.12886719 62.32382812 -61.13273438 61.46015625 -61.13671875 60.5703125 C-61.12665779 53.95019871 -60.374788 47.66864342 -59 41.1875 C-58.34 41.1875 -57.68 41.1875 -57 41.1875 C-57.495 39.7025 -57.495 39.7025 -58 38.1875 C-56.515 37.6925 -56.515 37.6925 -55 37.1875 C-54.979375 36.383125 -54.95875 35.57875 -54.9375 34.75 C-53.56835481 29.54724829 -50.44967673 26.22913309 -47 22.1875 C-46.35675781 21.42179687 -45.71351563 20.65609375 -45.05078125 19.8671875 C-40.3415493 14.35827465 -40.3415493 14.35827465 -38 13.1875 C-37.34 13.5175 -36.68 13.8475 -36 14.1875 C-36 13.1975 -36 12.2075 -36 11.1875 C-35.360625 11.06375 -34.72125 10.94 -34.0625 10.8125 C-33.381875 10.60625 -32.70125 10.4 -32 10.1875 C-31.67 9.5275 -31.34 8.8675 -31 8.1875 C-30.01 8.1875 -29.02 8.1875 -28 8.1875 C-28 7.5275 -28 6.8675 -28 6.1875 C-25.36 5.8575 -22.72 5.5275 -20 5.1875 C-20 4.5275 -20 3.8675 -20 3.1875 C-18.68 3.5175 -17.36 3.8475 -16 4.1875 C-16 3.1975 -16 2.2075 -16 1.1875 C-15.37351562 1.19910156 -14.74703125 1.21070313 -14.1015625 1.22265625 C-12.87566406 1.23619141 -12.87566406 1.23619141 -11.625 1.25 C-10.40683594 1.26740234 -10.40683594 1.26740234 -9.1640625 1.28515625 C-5.95888172 1.14051813 -3.37556081 0.02453169 0 0 Z " fill="#030303" transform="translate(1064,200.8125)"/>
<path d="M0 0 C4.26835703 -0.07474224 8.53635674 -0.12887823 12.80517578 -0.16479492 C14.25413661 -0.17978417 15.70305283 -0.20018271 17.15185547 -0.22631836 C31.97156783 -0.48676127 31.97156783 -0.48676127 39 3 C39 3.66 39 4.32 39 5 C39.94875 5.0825 40.8975 5.165 41.875 5.25 C45 6 45 6 46.375 8.0625 C46.684375 9.0215625 46.684375 9.0215625 47 10 C47.66 10 48.32 10 49 10 C49.474375 10.639375 49.94875 11.27875 50.4375 11.9375 C51.9091365 14.28372963 51.9091365 14.28372963 55 15 C58.46044283 19.25900656 58.66659456 23.72299659 59 29 C59.66 29 60.32 29 61 29 C60.979375 30.134375 60.95875 31.26875 60.9375 32.4375 C60.58422523 35.81575674 60.58422523 35.81575674 62 37 C62.11849489 39.01899631 62.16741174 41.04210268 62.18945312 43.06445312 C62.20617065 44.36249878 62.22288818 45.66054443 62.2401123 46.9979248 C62.24679428 47.69586655 62.25347626 48.39380829 62.26036072 49.11289978 C62.28132712 51.2892547 62.30835385 53.46545765 62.33703613 55.64172363 C62.40699704 61.04710394 62.46631958 66.45259216 62.52606201 71.85809326 C62.57691478 76.42287052 62.6317189 80.98756647 62.69187927 85.55223083 C62.71854417 87.70215469 62.73930406 89.85208572 62.7598877 92.0020752 C62.77660522 93.30012085 62.79332275 94.5981665 62.81054688 95.93554688 C62.82933899 97.65976868 62.82933899 97.65976868 62.84851074 99.41882324 C62.70909155 101.93057932 62.70909155 101.93057932 64 103 C64.08651611 104.41570123 64.10704904 105.835595 64.09765625 107.25390625 C64.09515869 108.0229126 64.09266113 108.79191895 64.09008789 109.58422852 C64.08098389 110.56705811 64.07187988 111.5498877 64.0625 112.5625 C64.041875 115.676875 64.02125 118.79125 64 122 C57.07 122 50.14 122 43 122 C42.67 120.35 42.34 118.7 42 117 C41.34 117 40.68 117 40 117 C39.34 115.02 38.68 113.04 38 111 C37.34 111 36.68 111 36 111 C35.67 111.66 35.34 112.32 35 113 C33.68 113 32.36 113 31 113 C31 113.99 31 114.98 31 116 C29.68 116 28.36 116 27 116 C27 116.66 27 117.32 27 118 C26.28972656 118.20496094 25.57945313 118.40992188 24.84765625 118.62109375 C23.92855469 118.89050781 23.00945312 119.15992188 22.0625 119.4375 C21.14597656 119.70433594 20.22945312 119.97117187 19.28515625 120.24609375 C17.0597507 120.79026051 17.0597507 120.79026051 16 122 C13.32941149 122.14115161 10.67567762 122.04247107 8 122 C7.67 122.66 7.34 123.32 7 124 C-0.26 124 -7.52 124 -15 124 C-15 123.01 -15 122.02 -15 121 C-17.97 121.495 -17.97 121.495 -21 122 C-21 121.34 -21 120.68 -21 120 C-22.98 120.495 -22.98 120.495 -25 121 C-25 120.34 -25 119.68 -25 119 C-25.825 118.835 -26.65 118.67 -27.5 118.5 C-32.41794927 116.39230746 -35.73220467 113.21147847 -39 109 C-40 105.5 -40 105.5 -40 103 C-40.66 103 -41.32 103 -42 103 C-42 102.01 -42 101.02 -42 100 C-42.66 99.67 -43.32 99.34 -44 99 C-44.10867663 95.97818586 -44.18762754 92.96033673 -44.25 89.9375 C-44.28351563 89.08994141 -44.31703125 88.24238281 -44.3515625 87.36914062 C-44.48830682 78.51494585 -40.83679296 73.51269006 -35.00390625 67.0625 C-25.81512605 57.60504202 -25.81512605 57.60504202 -21 56 C-20.34 56.33 -19.68 56.66 -19 57 C-19 56.34 -19 55.68 -19 55 C-17.68 55.33 -16.36 55.66 -15 56 C-15 55.34 -15 54.68 -15 54 C-14.01 54 -13.02 54 -12 54 C-12 53.34 -12 52.68 -12 52 C-11.236875 51.855625 -10.47375 51.71125 -9.6875 51.5625 C-6.91827092 51.0367406 -6.91827092 51.0367406 -4 50 C-3.01 50.33 -2.02 50.66 -1 51 C-1 50.34 -1 49.68 -1 49 C0.65 49 2.3 49 4 49 C4.495 48.01 4.495 48.01 5 47 C6.65 47.33 8.3 47.66 10 48 C10.495 47.01 10.495 47.01 11 46 C13.31 46.33 15.62 46.66 18 47 C18 46.01 18 45.02 18 44 C19.5778125 44.0309375 19.5778125 44.0309375 21.1875 44.0625 C24.35684718 44.01054349 26.94619589 43.74281722 30 43 C31.11375 42.814375 31.11375 42.814375 32.25 42.625 C32.8275 42.41875 33.405 42.2125 34 42 C35.20190901 38.39427296 35.32670315 35.7897565 35 32 C32.83472958 28.52010111 30.82440382 26.50244436 27 25 C27 24.34 27 23.68 27 23 C26.030625 23.185625 25.06125 23.37125 24.0625 23.5625 C23.051875 23.706875 22.04125 23.85125 21 24 C20.67 23.67 20.34 23.34 20 23 C18.25234548 22.90030159 16.5004897 22.87031955 14.75 22.875 C13.79609375 22.87242187 12.8421875 22.86984375 11.859375 22.8671875 C8.48364649 23.02398363 5.38172219 23.63154075 2.125 24.5 C0 25 0 25 -3.625 25.5 C-6.86004788 25.80031222 -6.86004788 25.80031222 -9 27 C-9.66 26.67 -10.32 26.34 -11 26 C-11.495 27.485 -11.495 27.485 -12 29 C-16.75 30.125 -16.75 30.125 -19 29 C-19 29.66 -19 30.32 -19 31 C-27.28112764 35.23257635 -27.28112764 35.23257635 -30.125 34.3125 C-32.51473034 32.63968876 -32.45273006 31.81453113 -33 29 C-33.515625 28.01 -34.03125 27.02 -34.5625 26 C-36 23 -36 23 -36 19 C-36.66 19 -37.32 19 -38 19 C-38 16.875 -38 16.875 -37 14 C-34.50224217 11.74515308 -31.80198037 9.85734917 -29 8 C-28.34 8.33 -27.68 8.66 -27 9 C-27 8.34 -27 7.68 -27 7 C-25.865625 6.87625 -24.73125 6.7525 -23.5625 6.625 C-21.7990625 6.315625 -21.7990625 6.315625 -20 6 C-19.67 5.34 -19.34 4.68 -19 4 C-17.68 4.33 -16.36 4.66 -15 5 C-14.67 4.01 -14.34 3.02 -14 2 C-9.38 2 -4.76 2 0 2 C0 1.34 0 0.68 0 0 Z " fill="#030303" transform="translate(1423,203)"/>
<path d="M0 0 C0.99 0.99 0.99 0.99 2 2 C3.9931567 2.02375926 3.9931567 2.02375926 6.125 1.625 C8.043125 1.315625 8.043125 1.315625 10 1 C10.495 2.485 10.495 2.485 11 4 C11.99 3.67 12.98 3.34 14 3 C20.95785255 5.88880146 27.1605704 10.29674901 33 15 C33.99 15.78375 34.98 16.5675 36 17.375 C36.99 18.179375 36.99 18.179375 38 19 C37.4664692 23.53501179 35.74800057 26.38834211 33 30 C31.68036291 31.01800576 30.34990354 32.02248365 29 33 C28.67 33.99 28.34 34.98 28 36 C27.01 36 26.02 36 25 36 C25 36.66 25 37.32 25 38 C22.21384935 36.82124395 20.44433736 35.5168151 18.125 33.5 C15.30528058 31.06151816 12.63177466 29.95117908 9 29 C9 28.34 9 27.68 9 27 C8.236875 27.20625 7.47375 27.4125 6.6875 27.625 C4 28 4 28 1 26 C-0.95214625 25.68521423 -0.95214625 25.68521423 -3 25.75 C-3.680625 25.74484375 -4.36125 25.7396875 -5.0625 25.734375 C-7.32416007 25.90082397 -7.32416007 25.90082397 -10 28 C-13.6875 27.625 -13.6875 27.625 -17 27 C-17 27.66 -17 28.32 -17 29 C-18.32 28.67 -19.64 28.34 -21 28 C-21 28.66 -21 29.32 -21 30 C-21.99 30 -22.98 30 -24 30 C-24.495 31.485 -24.495 31.485 -25 33 C-25.721875 33.4125 -26.44375 33.825 -27.1875 34.25 C-32.85083906 37.77385542 -36.41070761 42.48390121 -38 49 C-38.66 49 -39.32 49 -40 49 C-40.75945111 55.88930647 -41.08171898 62.63488157 -40.9375 69.56640625 C-41 72 -41 72 -42 74 C-40.515 74.495 -40.515 74.495 -39 75 C-39.33 76.32 -39.66 77.64 -40 79 C-39.34 79 -38.68 79 -38 79 C-37.68546875 79.67546875 -37.3709375 80.3509375 -37.046875 81.046875 C-32.52425918 90.47353208 -28.79541899 93.48561304 -19 97 C-19 97.66 -19 98.32 -19 99 C-18.30132813 99.06058594 -17.60265625 99.12117188 -16.8828125 99.18359375 C-15.51769531 99.30927734 -15.51769531 99.30927734 -14.125 99.4375 C-12.76761719 99.55931641 -12.76761719 99.55931641 -11.3828125 99.68359375 C-9 100 -9 100 -7 101 C-3.79603349 101.11866543 -0.87242946 101.21810737 2.25 100.4375 C4 100 4 100 7 101 C7 100.01 7 99.02 7 98 C8.98 98.495 8.98 98.495 11 99 C11 98.34 11 97.68 11 97 C11.99 96.690625 11.99 96.690625 13 96.375 C16.47051646 94.78434662 19.15710621 92.70767229 22.1328125 90.33984375 C24 89 24 89 27 88 C29.04590926 90.46920083 30.90658926 92.8365312 32.5 95.625 C33.83219878 98.10232899 33.83219878 98.10232899 36.125 99.375 C38.95141332 101.82455821 38.72866974 104.40487399 39 108 C37.35 108.33 35.7 108.66 34 109 C34 109.99 34 110.98 34 112 C32.29323198 112.97051515 30.58637133 113.94086799 28.87890625 114.91015625 C27.31305321 115.81841612 25.77719782 116.77814684 24.25 117.75 C22 119 22 119 19 119 C19 119.66 19 120.32 19 121 C16.625 122.0625 16.625 122.0625 14 123 C13.34 122.67 12.68 122.34 12 122 C12 122.66 12 123.32 12 124 C10.02 124 8.04 124 6 124 C5.67 124.66 5.34 125.32 5 126 C-1.93 126 -8.86 126 -16 126 C-16.33 125.34 -16.66 124.68 -17 124 C-18.98 124 -20.96 124 -23 124 C-23 123.34 -23 122.68 -23 122 C-24.98 122.495 -24.98 122.495 -27 123 C-27 122.34 -27 121.68 -27 121 C-27.9075 120.71125 -28.815 120.4225 -29.75 120.125 C-32.3272993 119.23285794 -34.57623465 118.21188268 -37 117 C-37.66 117 -38.32 117 -39 117 C-40.3125 115.8125 -40.3125 115.8125 -42 114 C-44.37267009 111.55754549 -46.71945274 109.23669702 -49.32421875 107.0390625 C-50.55591797 105.99878906 -50.55591797 105.99878906 -51.8125 104.9375 C-52.60269531 104.28652344 -53.39289062 103.63554687 -54.20703125 102.96484375 C-56 101 -56 101 -56 97 C-56.99 97 -57.98 97 -59 97 C-59.12375 96.401875 -59.2475 95.80375 -59.375 95.1875 C-59.95475985 92.73768652 -59.95475985 92.73768652 -62 90 C-62 89.01 -62 88.02 -62 87 C-62.66 86.67 -63.32 86.34 -64 86 C-63.67 85.01 -63.34 84.02 -63 83 C-63.66 83 -64.32 83 -65 83 C-65.14308594 82.26910156 -65.28617188 81.53820312 -65.43359375 80.78515625 C-65.77623819 79.10029081 -66.13796395 77.41894014 -66.53515625 75.74609375 C-68.57231401 66.82786977 -69.43897033 57.0256914 -65.9375 48.375 C-64.81641673 45.9604786 -64.81641673 45.9604786 -65 43 C-64.34 43 -63.68 43 -63 43 C-62.505 40.03 -62.505 40.03 -62 37 C-61.34 37 -60.68 37 -60 37 C-59.505 34.03 -59.505 34.03 -59 31 C-58.34 31 -57.68 31 -57 31 C-56.9175 30.4225 -56.835 29.845 -56.75 29.25 C-55.78202213 26.3460664 -54.31305716 24.96259396 -52 23 C-51.34 23 -50.68 23 -50 23 C-50.33 22.01 -50.66 21.02 -51 20 C-48.45920002 17.27771431 -46.30791618 15.62981272 -43 14 C-41.48701535 13.01975643 -39.98734389 12.01872869 -38.5 11 C-34.27593949 8.10680787 -30.22081342 5.97369022 -25.375 4.3125 C-24.59898437 4.04050781 -23.82296875 3.76851562 -23.0234375 3.48828125 C-21 3 -21 3 -19 4 C-19 3.34 -19 2.68 -19 2 C-12.79957002 0.55021261 -6.38960649 -0.93640785 0 0 Z " fill="#030203" transform="translate(661,201)"/>
<path d="M0 0 C1.4540625 0.0309375 1.4540625 0.0309375 2.9375 0.0625 C2.9375 0.7225 2.9375 1.3825 2.9375 2.0625 C3.948125 2.000625 4.95875 1.93875 6 1.875 C11.98888222 2.16018487 17.06411369 4.62246261 21.9375 8.0625 C22.4325 9.5475 22.4325 9.5475 22.9375 11.0625 C23.5975 11.0625 24.2575 11.0625 24.9375 11.0625 C24.9375 11.7225 24.9375 12.3825 24.9375 13.0625 C25.535625 13.31 26.13375 13.5575 26.75 13.8125 C31.43816816 16.49145324 33.20075598 21.11277954 34.9375 26.0625 C34.625 29 34.625 29 33.9375 31.0625 C35.4225 31.5575 35.4225 31.5575 36.9375 32.0625 C36.79530436 34.27107055 36.64858153 36.47934987 36.5 38.6875 C36.37818359 40.53214844 36.37818359 40.53214844 36.25390625 42.4140625 C35.97086056 45.67782388 35.52711047 48.84193859 34.9375 52.0625 C34.2775 52.0625 33.6175 52.0625 32.9375 52.0625 C32.81375 53.01125 32.69 53.96 32.5625 54.9375 C31.9375 58.0625 31.9375 58.0625 29.9375 60.0625 C29.9375 60.7225 29.9375 61.3825 29.9375 62.0625 C28.22417246 63.64783702 26.44060953 65.15791215 24.625 66.625 C23.63886719 67.43066406 22.65273438 68.23632812 21.63671875 69.06640625 C18.9375 71.0625 18.9375 71.0625 15.9375 72.0625 C15.6075 72.7225 15.2775 73.3825 14.9375 74.0625 C12.24970388 74.54846314 9.64834136 74.91051716 6.9375 75.1875 C6.165271 75.2709668 5.39304199 75.35443359 4.59741211 75.44042969 C-0.65166856 75.98174286 -5.78651536 76.43274454 -11.0625 76.0625 C-11.7225 75.4025 -12.3825 74.7425 -13.0625 74.0625 C-13.7225 74.0625 -14.3825 74.0625 -15.0625 74.0625 C-15.0625 73.4025 -15.0625 72.7425 -15.0625 72.0625 C-16.5475 72.5575 -16.5475 72.5575 -18.0625 73.0625 C-20.76171875 71.41015625 -20.76171875 71.41015625 -23.75 69.125 C-25.24080078 67.99771484 -25.24080078 67.99771484 -26.76171875 66.84765625 C-27.52097656 66.25855469 -28.28023437 65.66945313 -29.0625 65.0625 C-28.7325 64.4025 -28.4025 63.7425 -28.0625 63.0625 C-28.825625 62.52625 -29.58875 61.99 -30.375 61.4375 C-34.2649236 57.9998931 -36.04015347 54.08952061 -37.0625 49.0625 C-37.15250848 47.44981971 -37.19312644 45.83393868 -37.1953125 44.21875 C-37.19660156 43.30222656 -37.19789063 42.38570313 -37.19921875 41.44140625 C-37.19535156 40.49136719 -37.19148437 39.54132813 -37.1875 38.5625 C-37.19136719 37.61246094 -37.19523438 36.66242188 -37.19921875 35.68359375 C-37.19792969 34.76707031 -37.19664062 33.85054688 -37.1953125 32.90625 C-37.19418457 32.07287109 -37.19305664 31.23949219 -37.19189453 30.38085938 C-36.98638991 26.69883688 -36.71221943 24.71221943 -34.0625 22.0625 C-33.4128125 20.70125 -33.4128125 20.70125 -32.75 19.3125 C-29.46303102 12.98204123 -25.85012106 9.58935398 -19.734375 6.140625 C-17.89757443 5.15708294 -17.89757443 5.15708294 -17.0625 3.0625 C-15.7425 3.3925 -14.4225 3.7225 -13.0625 4.0625 C-13.0625 3.4025 -13.0625 2.7425 -13.0625 2.0625 C-12.10537109 1.97162109 -12.10537109 1.97162109 -11.12890625 1.87890625 C-10.30261719 1.79511719 -9.47632813 1.71132812 -8.625 1.625 C-7.80128906 1.54378906 -6.97757813 1.46257812 -6.12890625 1.37890625 C-3.13269668 0.92012936 -3.40485874 0.06948691 0 0 Z " fill="#FCFCFC" transform="translate(779.0625,225.9375)"/>
<path d="M0 0 C0.97259766 -0.01546875 1.94519531 -0.0309375 2.94726562 -0.046875 C11.53733247 -0.0009695 18.00824929 2.67615065 25.5625 6.5 C25.5625 7.16 25.5625 7.82 25.5625 8.5 C26.8825 8.17 28.2025 7.84 29.5625 7.5 C29.5625 27.63 29.5625 47.76 29.5625 68.5 C28.2425 68.83 26.9225 69.16 25.5625 69.5 C24.634375 69.995 24.634375 69.995 23.6875 70.5 C20.99356733 71.76773302 18.51292724 72.17930139 15.5625 72.5 C14.5725 72.005 14.5725 72.005 13.5625 71.5 C13.5625 72.16 13.5625 72.82 13.5625 73.5 C11.8609375 73.7165625 11.8609375 73.7165625 10.125 73.9375 C6.75472799 74.11171478 6.75472799 74.11171478 5.5625 75.5 C-5.09602771 76.56585277 -16.28908295 73.01004278 -24.99609375 66.96484375 C-26.4375 65.5 -26.4375 65.5 -26.4375 62.5 C-27.035625 62.066875 -27.63375 61.63375 -28.25 61.1875 C-32.05654448 58.25102283 -33.24356725 54.50997563 -34.1328125 49.87890625 C-34.27460937 48.61949219 -34.41640625 47.36007812 -34.5625 46.0625 C-34.70945312 44.80566406 -34.85640625 43.54882812 -35.0078125 42.25390625 C-35.14960937 41.01511719 -35.29140625 39.77632813 -35.4375 38.5 C-35.64117188 37.20964844 -35.84484375 35.91929687 -36.0546875 34.58984375 C-36.24417969 33.06037109 -36.24417969 33.06037109 -36.4375 31.5 C-36.1075 31.17 -35.7775 30.84 -35.4375 30.5 C-35.21668122 28.85579527 -35.01115987 27.20952896 -34.8125 25.5625 C-33.54005085 18.11235878 -29.27970246 11.36071245 -23.4375 6.5 C-22.4475 6.5 -21.4575 6.5 -20.4375 6.5 C-20.4375 5.84 -20.4375 5.18 -20.4375 4.5 C-13.55802325 0.73488821 -7.77846538 -0.12322321 0 0 Z " fill="#FCFCFC" transform="translate(922.4375,227.5)"/>
<path d="M0 0 C0.90105469 0.01804688 1.80210938 0.03609375 2.73046875 0.0546875 C3.41753906 0.07789063 4.10460938 0.10109375 4.8125 0.125 C4.8125 0.785 4.8125 1.445 4.8125 2.125 C5.823125 2.0425 6.83375 1.96 7.875 1.875 C12.71525368 2.18231769 14.80618267 3.5086295 18.8125 6.125 C18.8125 6.785 18.8125 7.445 18.8125 8.125 C19.51375 8.125 20.215 8.125 20.9375 8.125 C25.56296595 9.73385772 27.47199225 12.94414779 29.8125 17.125 C34.08114534 26.73930275 34.28777206 35.84064063 33.8125 46.125 C33.1525 46.125 32.4925 46.125 31.8125 46.125 C31.8125 48.105 31.8125 50.085 31.8125 52.125 C31.1525 52.125 30.4925 52.125 29.8125 52.125 C30.06 52.640625 30.3075 53.15625 30.5625 53.6875 C30.95461609 57.51063183 28.95219377 60.12536601 26.8125 63.125 C24.4375 65.75 24.4375 65.75 21.8125 68.125 C20.86375 69.0325 19.915 69.94 18.9375 70.875 C15.42717388 73.4024348 13.08144705 73.86886318 8.8125 74.125 C8.8125 74.785 8.8125 75.445 8.8125 76.125 C-4.5418386 76.82625112 -14.39078084 76.88470733 -26.1875 70.125 C-27.51332653 69.76296009 -28.84610592 69.42425044 -30.1875 69.125 C-30.23379168 61.46692785 -30.26935303 53.80887016 -30.29112434 46.15069008 C-30.30157224 42.59487601 -30.31574959 39.0391575 -30.33837891 35.48339844 C-30.36421832 31.397777 -30.37396444 27.31225631 -30.3828125 23.2265625 C-30.39313507 21.94633209 -30.40345764 20.66610168 -30.41409302 19.34707642 C-30.41424408 18.16600311 -30.41439514 16.98492981 -30.41455078 15.76806641 C-30.418992 14.72437897 -30.42343323 13.68069153 -30.42800903 12.6053772 C-30.1875 10.125 -30.1875 10.125 -28.1875 8.125 C-27.1975 8.125 -26.2075 8.125 -25.1875 8.125 C-25.1875 7.465 -25.1875 6.805 -25.1875 6.125 C-22.5475 5.795 -19.9075 5.465 -17.1875 5.125 C-17.1875 4.465 -17.1875 3.805 -17.1875 3.125 C-16.57261719 3.07601562 -15.95773437 3.02703125 -15.32421875 2.9765625 C-14.51597656 2.90179688 -13.70773437 2.82703125 -12.875 2.75 C-12.07449219 2.68039063 -11.27398438 2.61078125 -10.44921875 2.5390625 C-6.3579095 1.79004906 -4.43640094 -0.11523119 0 0 Z " fill="#FDFDFD" transform="translate(1575.1875,225.875)"/>
<path d="M0 0 C1.11503906 -0.02578125 2.23007812 -0.0515625 3.37890625 -0.078125 C6.83046403 0.29215706 7.97303664 0.86743025 10.4375 3.25 C10.91851807 5.43302917 10.91851807 5.43302917 10.89160156 7.99682617 C10.89129944 8.95759567 10.89099731 9.91836517 10.89068604 10.9082489 C10.87004089 11.94270645 10.84939575 12.977164 10.828125 14.04296875 C10.82246521 15.10413406 10.81680542 16.16529938 10.81097412 17.25862122 C10.78856143 20.65203735 10.73835449 24.04440235 10.6875 27.4375 C10.6674414 29.73631289 10.64918952 32.03514231 10.6328125 34.33398438 C10.5886807 39.97301564 10.52171972 45.61143273 10.4375 51.25 C8.95715236 50.77449439 7.47824979 50.29448784 6 49.8125 C5.17628906 49.54566406 4.35257812 49.27882812 3.50390625 49.00390625 C1.4375 48.25 1.4375 48.25 0.4375 47.25 C-0.90997084 47.01924918 -2.26627565 46.83846937 -3.625 46.6875 C-4.924375 46.543125 -6.22375 46.39875 -7.5625 46.25 C-7.5625 46.91 -7.5625 47.57 -7.5625 48.25 C-12.5125 48.745 -12.5125 48.745 -17.5625 49.25 C-17.5625 49.91 -17.5625 50.57 -17.5625 51.25 C-24.1875 53.375 -24.1875 53.375 -27.5625 52.25 C-27.5625 52.91 -27.5625 53.57 -27.5625 54.25 C-42.68059191 54.82329843 -42.68059191 54.82329843 -49.5625 51.25 C-51.68181075 48.07103387 -51.8094603 47.32025468 -51.78955078 43.68676758 C-51.78939972 42.76603958 -51.78924866 41.84531158 -51.78909302 40.89668274 C-51.77877045 39.90597275 -51.76844788 38.91526276 -51.7578125 37.89453125 C-51.7549826 36.87775803 -51.75215271 35.8609848 -51.74923706 34.81340027 C-51.73803383 31.56298092 -51.71292886 28.31283619 -51.6875 25.0625 C-51.67747039 22.86003002 -51.66834451 20.65755572 -51.66015625 18.45507812 C-51.63809405 13.05329157 -51.60461508 7.65166541 -51.5625 2.25 C-49.75390625 1.6328125 -49.75390625 1.6328125 -47.5625 1.25 C-46.551875 1.86875 -45.54125 2.4875 -44.5 3.125 C-36.8888643 7.77894285 -27.92842089 6.29837124 -19.5078125 5.015625 C-16.39792135 4.20721828 -14.28792246 2.91504909 -11.5625 1.25 C-7.72573557 0.17695369 -3.97294314 0.05524371 0 0 Z " fill="#57B0ED" transform="translate(441.5625,70.75)"/>
<path d="M0 0 C2.00720923 0.28674418 4.0085944 0.61866701 6 1 C6.08692074 5.27070558 6.14036515 9.54118458 6.1875 13.8125 C6.21263672 15.02744141 6.23777344 16.24238281 6.26367188 17.49414062 C6.27333984 18.65751953 6.28300781 19.82089844 6.29296875 21.01953125 C6.3086792 22.09307861 6.32438965 23.16662598 6.34057617 24.27270508 C6 27 6 27 4.66894531 28.78710938 C2.15061052 30.61728597 -0.53237641 31.58942264 -3.4375 32.6875 C-4.57058594 33.12449219 -5.70367188 33.56148438 -6.87109375 34.01171875 C-10 35 -10 35 -14 35 C-14 35.66 -14 36.32 -14 37 C-14.969375 36.979375 -15.93875 36.95875 -16.9375 36.9375 C-19.87465895 36.64381501 -19.87465895 36.64381501 -21 38 C-22.99799572 38.09873816 -24.99957158 38.12971799 -27 38.125 C-28.093125 38.12757813 -29.18625 38.13015625 -30.3125 38.1328125 C-33 38 -33 38 -34 37 C-35.0725 36.938125 -36.145 36.87625 -37.25 36.8125 C-41.06872691 35.98510917 -42.80360258 35.12584694 -45.11328125 31.94140625 C-46.90610299 28.01615337 -46.83134417 24.17716374 -46 20 C-41.81741268 13.07258975 -34.70633094 9.10172662 -27 7 C-25.9171875 6.6596875 -25.9171875 6.6596875 -24.8125 6.3125 C-23 6 -23 6 -20 7 C-20 6.01 -20 5.02 -20 4 C-17.525 4.495 -17.525 4.495 -15 5 C-14.67 4.34 -14.34 3.68 -14 3 C-12.02 3.33 -10.04 3.66 -8 4 C-7.67 3.01 -7.34 2.02 -7 1 C-5.5459375 1.0309375 -5.5459375 1.0309375 -4.0625 1.0625 C-1.12534105 1.35618499 -1.12534105 1.35618499 0 0 Z " fill="#FCFCFC" transform="translate(1452,268)"/>
<path d="M0 0 C2.95857409 -0.05379226 5.91617721 -0.09357093 8.875 -0.125 C9.71675781 -0.14175781 10.55851562 -0.15851563 11.42578125 -0.17578125 C12.23144531 -0.18222656 13.03710938 -0.18867188 13.8671875 -0.1953125 C14.61081543 -0.20578613 15.35444336 -0.21625977 16.12060547 -0.22705078 C18 0 18 0 20 2 C20.66 2 21.32 2 22 2 C22 2.66 22 3.32 22 4 C22.99 3.67 23.98 3.34 25 3 C30.10724106 6.3104505 35.8802579 11.72646105 39 17 C38.505 18.485 38.505 18.485 38 20 C38.66 20 39.32 20 40 20 C40.2165625 21.1446875 40.2165625 21.1446875 40.4375 22.3125 C40.9632594 25.08172908 40.9632594 25.08172908 42 28 C20.55 28 -0.9 28 -23 28 C-24.24546405 25.50907189 -23.7767578 24.58919267 -23 22 C-22.34 22 -21.68 22 -21 22 C-21.22300781 21.41347656 -21.44601562 20.82695312 -21.67578125 20.22265625 C-22 18 -22 18 -20.85546875 16.18359375 C-20.30503906 15.60738281 -19.75460937 15.03117188 -19.1875 14.4375 C-17.20011635 12.31793881 -15.62846496 10.44269744 -14 8 C-12.37890625 6.578125 -12.37890625 6.578125 -10.5625 5.25 C-9.96566406 4.80140625 -9.36882812 4.3528125 -8.75390625 3.890625 C-8.17511719 3.59671875 -7.59632812 3.3028125 -7 3 C-6.01 3.33 -5.02 3.66 -4 4 C-4 3.34 -4 2.68 -4 2 C-2.68 2.33 -1.36 2.66 0 3 C0 2.01 0 1.02 0 0 Z " fill="#F7F7F7" transform="translate(1054,226)"/>
<path d="M0 0 C0.99 0 1.98 0 3 0 C2.67 3.3 2.34 6.6 2 10 C93.08 10.33 184.16 10.66 278 11 C278 11.66 278 12.32 278 13 C242.89030959 13.06861855 207.78063271 13.12150457 172.67088939 13.15319599 C168.52888383 13.15694825 164.38687841 13.16083121 160.24487305 13.16479492 C159.00793893 13.16597532 159.00793893 13.16597532 157.74601624 13.16717956 C144.38171225 13.18024491 131.01744685 13.20390494 117.65316578 13.23145839 C103.9472333 13.25948122 90.24132107 13.27616964 76.53536111 13.28226548 C68.07332911 13.28638842 59.61140616 13.29942527 51.14940772 13.3237494 C45.3521402 13.33956809 39.55492931 13.34440917 33.75764176 13.34050413 C30.40938702 13.3385765 27.06147779 13.34322054 23.71323013 13.35761642 C20.08826218 13.37244373 16.4637688 13.36898913 12.83879089 13.36076355 C11.24104609 13.37387134 11.24104609 13.37387134 9.6110236 13.38724393 C8.15993812 13.37828421 8.15993812 13.37828421 6.67953777 13.36914349 C5.84225444 13.37028265 5.00497112 13.37142181 4.14231557 13.37259549 C1.49562697 12.91227851 0.60821424 12.11639997 -1 10 C-1.328125 7.7734375 -1.328125 7.7734375 -1.25 5.375 C-1.23453125 4.57835937 -1.2190625 3.78171875 -1.203125 2.9609375 C-1 1 -1 1 0 0 Z " fill="#4F98C8" transform="translate(142,444)"/>
<path d="M0 0 C0.83265381 0.00523682 1.66530762 0.01047363 2.52319336 0.01586914 C3.42231445 0.0190918 4.32143555 0.02231445 5.24780273 0.02563477 C6.66609375 0.03820312 6.66609375 0.03820312 8.11303711 0.05102539 C9.06243164 0.05553711 10.01182617 0.06004883 10.98999023 0.06469727 C13.34356776 0.07652429 15.69702188 0.09300514 18.05053711 0.11352539 C16.56944264 3.9785517 14.5849408 5.30082248 11.06616211 7.36743164 C7.16317236 9.74490344 3.53562112 12.21702553 -0.02758789 15.07836914 C-12.75819057 25.007751 -22.04869224 28.22244862 -38.18725586 26.3515625 C-38.76878418 26.27301025 -39.3503125 26.19445801 -39.94946289 26.11352539 C-36.27310316 21.93042419 -31.76763284 19.31587417 -27.07446289 16.42602539 C-25.37105828 15.36397372 -23.66793592 14.30146924 -21.96508789 13.23852539 C-21.12139648 12.71387695 -20.27770508 12.18922852 -19.40844727 11.64868164 C-15.86279888 9.43511561 -12.34051853 7.18621353 -8.82446289 4.92602539 C-8.23938965 4.55195557 -7.65431641 4.17788574 -7.05151367 3.79248047 C-1.26385738 0.07359971 -1.26385738 0.07359971 0 0 Z " fill="#14181B" transform="translate(367.949462890625,410.886474609375)"/>
<path d="M0 0 C1.64574566 -0.02688151 3.29161413 -0.04634123 4.9375 -0.0625 C6.31228516 -0.07990234 6.31228516 -0.07990234 7.71484375 -0.09765625 C10 0 10 0 11 1 C12.14195403 11.08726059 7.44861799 19.35853287 1.625 27.3125 C0.09061805 29.21423399 -1.45043441 31.1106174 -3 33 C-3.76183594 34.14275391 -3.76183594 34.14275391 -4.5390625 35.30859375 C-6.67939755 38.15283578 -8.32770936 39.76217236 -11.96044922 40.27880859 C-16.99500643 40.58958373 -21.97374244 40.35619148 -27 40 C-23.60886615 35.80570287 -20.13735559 32.16483638 -16.0625 28.625 C-6.87958817 20.50697403 -0.80029655 12.41839473 0 0 Z " fill="#15181C" transform="translate(422,353)"/>
<path d="M0 0 C14.52757939 -0.91400009 25.23614378 -0.06299065 38 7 C39.43697446 7.75219972 40.87582202 8.50083065 42.31640625 9.24609375 C45.9052189 11.11615167 49.45890461 13.04120442 53 15 C53 15.66 53 16.32 53 17 C37.96192136 18.4872825 27.35813693 14.66700996 14 8 C12.51997129 7.28034432 11.03953037 6.56153548 9.55859375 5.84375 C6.34911356 4.27304511 3.16686691 2.65528674 0 1 C0 0.67 0 0.34 0 0 Z " fill="#151819" transform="translate(364,315)"/>
<path d="M0 0 C1.98 0 3.96 0 6 0 C6.14695312 0.6290625 6.29390625 1.258125 6.4453125 1.90625 C8.15527793 8.43163532 10.54998288 12.95805661 15 18 C15.49113281 18.58394531 15.98226563 19.16789062 16.48828125 19.76953125 C21.0434469 24.77682252 26.61387097 28.01964186 32.40234375 31.3984375 C33.25957031 31.92695313 34.11679687 32.45546875 35 33 C35 33.33 35 33.66 35 34 C27.62999525 34.76461144 21.59635889 35.27486206 15.5625 30.5 C14.00037929 29.0430467 12.4770623 27.54312054 11 26 C10.33097656 25.3296875 9.66195313 24.659375 8.97265625 23.96875 C3.48043931 18.11657804 -0.21538156 12.6930301 -0.25 4.5 C-0.1867057 2.99902089 -0.11052603 1.49824178 0 0 Z " fill="#13181A" transform="translate(250,238)"/>
<path d="M0 0 C14.98094461 -1.70238007 25.90704515 2.53911286 39.39160156 8.81884766 C43.83177848 10.82947813 48.37660343 12.45886781 53 14 C53 14.66 53 15.32 53 16 C32.90748722 18.00036079 17.16686806 10.91063168 0 1 C0 0.67 0 0.34 0 0 Z " fill="#171F25" transform="translate(297,286)"/>
<path d="M0 0 C-2.2688346 2.50153558 -4.51053825 3.94850719 -7.5 5.5 C-12.94899859 8.4100126 -18.32937826 11.42573605 -23.6875 14.5 C-24.48285156 14.95052734 -25.27820313 15.40105469 -26.09765625 15.86523438 C-30.04418875 18.13678506 -33.70026463 20.48714961 -37.26953125 23.3203125 C-40.24479111 25.61336369 -42.12124362 26.73863341 -46 26.375 C-46.763125 26.32085937 -47.52625 26.26671875 -48.3125 26.2109375 C-48.869375 26.14132813 -49.42625 26.07171875 -50 26 C-50 25.34 -50 24.68 -50 24 C-47.82419617 22.36052877 -45.6563055 20.85545715 -43.375 19.375 C-42.69856445 18.9305957 -42.02212891 18.48619141 -41.32519531 18.02832031 C-35.76094267 14.41116771 -30.0855376 11.04401408 -24.28125 7.828125 C-22.17277659 6.6534041 -20.08647003 5.43745786 -18.03125 4.171875 C-11.82271567 0.43977852 -7.24180727 -0.84828111 0 0 Z " fill="#141C24" transform="translate(314,194)"/>
<path d="M0 0 C1.06347656 0.00322266 2.12695312 0.00644531 3.22265625 0.00976562 C4.86427734 0.02233398 4.86427734 0.02233398 6.5390625 0.03515625 C7.65667969 0.03966797 8.77429688 0.04417969 9.92578125 0.04882812 C12.67193054 0.06056381 15.41796836 0.07698262 18.1640625 0.09765625 C17.1740625 0.59265625 17.1740625 0.59265625 16.1640625 1.09765625 C16.1640625 1.75765625 16.1640625 2.41765625 16.1640625 3.09765625 C10.23839757 5.4020815 4.27143692 7.33302553 -1.8359375 9.09765625 C-1.4609375 6.66015625 -1.4609375 6.66015625 -0.8359375 4.09765625 C-0.1759375 3.76765625 0.4840625 3.43765625 1.1640625 3.09765625 C-3.4559375 3.09765625 -8.0759375 3.09765625 -12.8359375 3.09765625 C-12.5059375 2.43765625 -12.1759375 1.77765625 -11.8359375 1.09765625 C-7.86805498 0.18737732 -4.05913689 -0.02182332 0 0 Z " fill="#5BA8E0" transform="translate(351.8359375,164.90234375)"/>
<path d="M0 0 C2.69082872 0.17635452 5.32851446 0.61835921 8 1 C8 1.33 8 1.66 8 2 C6.58461283 2.33872513 5.16762037 2.67074624 3.75 3 C2.96109375 3.185625 2.1721875 3.37125 1.359375 3.5625 C-1 4 -1 4 -5 4 C-5 4.66 -5 5.32 -5 6 C-5.99902344 6.34933594 -6.99804688 6.69867188 -8.02734375 7.05859375 C-9.33078205 7.51807919 -10.6341646 7.97772279 -11.9375 8.4375 C-12.59685547 8.66759766 -13.25621094 8.89769531 -13.93554688 9.13476562 C-17.22328622 10.11964592 -17.22328622 10.11964592 -20 12 C-21.85287502 12.07226502 -23.70833878 12.0838122 -25.5625 12.0625 C-26.57441406 12.05347656 -27.58632813 12.04445312 -28.62890625 12.03515625 C-29.41136719 12.02355469 -30.19382812 12.01195312 -31 12 C-30.67 11.34 -30.34 10.68 -30 10 C-27.93359375 9.5859375 -27.93359375 9.5859375 -25.4375 9.375 C-24.19806641 9.26285156 -24.19806641 9.26285156 -22.93359375 9.1484375 C-21.97646484 9.07496094 -21.97646484 9.07496094 -21 9 C-21 8.34 -21 7.68 -21 7 C-20.12927856 6.78827148 -20.12927856 6.78827148 -19.2409668 6.57226562 C-15.72582241 5.67461899 -12.27595495 4.57751932 -8.8125 3.5 C-7.70745117 3.16162109 -7.70745117 3.16162109 -6.58007812 2.81640625 C-3.00731278 1.931253 -3.00731278 1.931253 0 0 Z " fill="#ECEDEB" transform="translate(365,168)"/>
<path d="M0 0 C2.08268593 -0.08126087 4.16628658 -0.13930839 6.25 -0.1875 C7.99023438 -0.23970703 7.99023438 -0.23970703 9.765625 -0.29296875 C13.35466082 0.03212507 14.46040526 0.52696978 17 3 C17.48101807 5.18302917 17.48101807 5.18302917 17.45410156 7.74682617 C17.45364838 9.18798042 17.45364838 9.18798042 17.45318604 10.6582489 C17.43254089 11.69270645 17.41189575 12.727164 17.390625 13.79296875 C17.38496521 14.85413406 17.37930542 15.91529938 17.37347412 17.00862122 C17.35106143 20.40203735 17.30085449 23.79440235 17.25 27.1875 C17.2299414 29.48631289 17.21168952 31.78514231 17.1953125 34.08398438 C17.15118034 39.72306202 17.08211776 45.36135273 17 51 C14.03 50.01 11.06 49.02 8 48 C8 47.34 8 46.68 8 46 C10.31 46 12.62 46 15 46 C15 32.14 15 18.28 15 4 C11.2311658 2.1155829 9.31987525 1.66570538 5.25 1.375 C3.77273438 1.26285156 3.77273438 1.26285156 2.265625 1.1484375 C1.51796875 1.09945312 0.7703125 1.05046875 0 1 C0 0.67 0 0.34 0 0 Z " fill="#589BCC" transform="translate(435,71)"/>
<path d="M0 0 C0 0.66 0 1.32 0 2 C-0.66 2 -1.32 2 -2 2 C-2 2.66 -2 3.32 -2 4 C-5.77222089 5.75163456 -8.666639 6.22490027 -12.8125 6.125 C-14.27623047 6.09792969 -14.27623047 6.09792969 -15.76953125 6.0703125 C-16.50558594 6.04710937 -17.24164063 6.02390625 -18 6 C-17.67 5.34 -17.34 4.68 -17 4 C-14.93359375 3.5859375 -14.93359375 3.5859375 -12.4375 3.375 C-11.61121094 3.30023438 -10.78492188 3.22546875 -9.93359375 3.1484375 C-8.97646484 3.07496094 -8.97646484 3.07496094 -8 3 C-8 2.34 -8 1.68 -8 1 C-5.10765685 0.17361624 -3.11257569 0 0 0 Z " fill="#EFF3F3" transform="translate(352,174)"/>
<path d="M0 0 C0.76441406 0.07605469 1.52882813 0.15210938 2.31640625 0.23046875 C4.79302133 0.91005558 5.80173561 1.87362271 7.4375 3.8125 C5.14608714 3.86634521 2.85431812 3.90522087 0.5625 3.9375 C-1.35175781 3.97230469 -1.35175781 3.97230469 -3.3046875 4.0078125 C-6.5625 3.8125 -6.5625 3.8125 -8.5625 1.8125 C-5.49109569 0.00044142 -3.53472701 -0.41268386 0 0 Z " fill="#141311" transform="translate(338.5625,297.1875)"/>
<path d="M0 0 C1.06347656 0.00322266 2.12695312 0.00644531 3.22265625 0.00976562 C4.86427734 0.02233398 4.86427734 0.02233398 6.5390625 0.03515625 C7.65667969 0.03966797 8.77429688 0.04417969 9.92578125 0.04882812 C12.67193054 0.06056381 15.41796836 0.07698262 18.1640625 0.09765625 C17.1740625 0.59265625 17.1740625 0.59265625 16.1640625 1.09765625 C16.1640625 1.75765625 16.1640625 2.41765625 16.1640625 3.09765625 C14.90722656 2.85402344 14.90722656 2.85402344 13.625 2.60546875 C4.93508435 1.33042469 -4.17656854 1.68388173 -12.8359375 3.09765625 C-12.5059375 2.43765625 -12.1759375 1.77765625 -11.8359375 1.09765625 C-7.86805498 0.18737732 -4.05913689 -0.02182332 0 0 Z " fill="#5185AF" transform="translate(351.8359375,164.90234375)"/>
<path d="M0 0 C2.95857409 -0.05379226 5.91617721 -0.09357093 8.875 -0.125 C9.71675781 -0.14175781 10.55851562 -0.15851563 11.42578125 -0.17578125 C12.23144531 -0.18222656 13.03710938 -0.18867188 13.8671875 -0.1953125 C14.98262939 -0.21102295 14.98262939 -0.21102295 16.12060547 -0.22705078 C18 0 18 0 20 2 C15.71 2 11.42 2 7 2 C6.67 2.66 6.34 3.32 6 4 C4.02 3.01 2.04 2.02 0 1 C0 0.67 0 0.34 0 0 Z " fill="#254158" transform="translate(297,286)"/>
<path d="M0 0 C0.66 0.33 1.32 0.66 2 1 C0.68 1.99 -0.64 2.98 -2 4 C-1.34 2.68 -0.68 1.36 0 0 Z M-5 3 C-4.01 3.33 -3.02 3.66 -2 4 C-3.65 5.98 -5.3 7.96 -7 10 C-7.66 9.01 -8.32 8.02 -9 7 C-7.68 5.68 -6.36 4.36 -5 3 Z M-10 10 C-9.34 10.33 -8.68 10.66 -8 11 C-11.465 13.97 -11.465 13.97 -15 17 C-13.38262276 13.76524552 -12.52370777 12.29427979 -10 10 Z " fill="#352F32" transform="translate(619,214)"/>
<path d="M0 0 C0.66 0.33 1.32 0.66 2 1 C-2.40086567 4.12319499 -6.79459302 5.03603575 -12 6 C-12 6.66 -12 7.32 -12 8 C-13.98 8 -15.96 8 -18 8 C-18 7.34 -18 6.68 -18 6 C-16.68 6 -15.36 6 -14 6 C-14 5.34 -14 4.68 -14 4 C-13.15695313 3.79503906 -12.31390625 3.59007812 -11.4453125 3.37890625 C-10.34960938 3.10949219 -9.25390625 2.84007812 -8.125 2.5625 C-7.03445312 2.29566406 -5.94390625 2.02882813 -4.8203125 1.75390625 C-2.07515279 1.1213522 -2.07515279 1.1213522 0 0 Z " fill="#598CB6" transform="translate(198,424)"/>
<path d="M0 0 C0.66 0.33 1.32 0.66 2 1 C1.67 2.32 1.34 3.64 1 5 C1.66 5.33 2.32 5.66 3 6 C1.35 6.66 -0.3 7.32 -2 8 C-2.33 7.34 -2.66 6.68 -3 6 C-3.99 5.34 -4.98 4.68 -6 4 C-4.02 2.68 -2.04 1.36 0 0 Z " fill="#15202B" transform="translate(285,204)"/>
<path d="M0 0 C0.53625 0.226875 1.0725 0.45375 1.625 0.6875 C0.635 0.6875 -0.355 0.6875 -1.375 0.6875 C-1.705 1.6775 -2.035 2.6675 -2.375 3.6875 C-5.02734375 4.890625 -5.02734375 4.890625 -8.3125 5.9375 C-9.39402344 6.29328125 -10.47554688 6.6490625 -11.58984375 7.015625 C-14.375 7.6875 -14.375 7.6875 -16.375 6.6875 C-14.43120214 5.71560107 -12.48697872 4.74488347 -10.5390625 3.78125 C-8.71101886 2.85732902 -6.91387725 1.87264308 -5.125 0.875 C-2.375 -0.3125 -2.375 -0.3125 0 0 Z " fill="#5B93C2" transform="translate(291.375,388.3125)"/>
<path d="M0 0 C0 3.77622631 -1.05213827 4.5913843 -3.4375 7.4375 C-5.81282727 10.2734968 -7.40315561 12.30965231 -8 16 C-8.99 16 -9.98 16 -11 16 C-9.66534338 12.22959506 -7.99723337 9.42875097 -5.5 6.3125 C-4.8915625 5.54550781 -4.283125 4.77851563 -3.65625 3.98828125 C-2 2 -2 2 0 0 Z " fill="#4F84AE" transform="translate(219,220)"/>
<path d="M0 0 C1.18851562 0.10183594 2.37703125 0.20367187 3.6015625 0.30859375 C4.51679688 0.39238281 5.43203125 0.47617188 6.375 0.5625 C6.045 1.2225 5.715 1.8825 5.375 2.5625 C0.755 2.5625 -3.865 2.5625 -8.625 2.5625 C-8.625 1.9025 -8.625 1.2425 -8.625 0.5625 C-5.68113377 -0.90943312 -3.25109964 -0.28686173 0 0 Z " fill="#306086" transform="translate(338.625,179.4375)"/>
<path d="M0 0 C-2.64 0.66 -5.28 1.32 -8 2 C-8 2.66 -8 3.32 -8 4 C-11.3 4.33 -14.6 4.66 -18 5 C-18 4.34 -18 3.68 -18 3 C-15.75376301 2.30030318 -13.50283586 1.61564957 -11.25 0.9375 C-9.99703125 0.55464844 -8.7440625 0.17179688 -7.453125 -0.22265625 C-4 -1 -4 -1 0 0 Z " fill="#5C8EBA" transform="translate(338,169)"/>
<path d="M0 0 C1.2065625 0.0309375 1.2065625 0.0309375 2.4375 0.0625 C1.75 2.5 1.75 2.5 0.4375 5.0625 C-2.1875 5.875 -2.1875 5.875 -4.5625 6.0625 C-3.48963568 0.08511307 -3.48963568 0.08511307 0 0 Z " fill="#111213" transform="translate(290.5625,202.9375)"/>
<path d="M0 0 C0.99 0 1.98 0 3 0 C2.85904936 1.6254308 2.71207913 3.25034051 2.5625 4.875 C2.48128906 5.77992188 2.40007812 6.68484375 2.31640625 7.6171875 C2 10 2 10 1 12 C-1 10 -1 10 -1.23046875 7.87109375 C-1.20919922 6.66646484 -1.20919922 6.66646484 -1.1875 5.4375 C-1.18105469 4.63183594 -1.17460937 3.82617188 -1.16796875 2.99609375 C-1 1 -1 1 0 0 Z " fill="#659FCB" transform="translate(142,444)"/>
<path d="M0 0 C7.26 0 14.52 0 22 0 C22 0.33 22 0.66 22 1 C20.87980469 1.06058594 19.75960938 1.12117188 18.60546875 1.18359375 C17.13280016 1.26801424 15.66014456 1.35266149 14.1875 1.4375 C13.44951172 1.47681641 12.71152344 1.51613281 11.95117188 1.55664062 C8.76928658 1.74381035 6.03837622 1.98720793 3 3 C2.01 2.01 1.02 1.02 0 0 Z " fill="#17202D" transform="translate(364,315)"/>
<path d="M0 0 C1.12894876 0.93274109 2.25300876 1.87140122 3.375 2.8125 C4.00148438 3.33457031 4.62796875 3.85664063 5.2734375 4.39453125 C7 6 7 6 9 9 C6 9 6 9 4.17578125 7.46875 C3.56089844 6.8190625 2.94601562 6.169375 2.3125 5.5 C1.68988281 4.8503125 1.06726562 4.200625 0.42578125 3.53125 C-0.04472656 3.0259375 -0.51523438 2.520625 -1 2 C-0.67 1.34 -0.34 0.68 0 0 Z " fill="#B2A39F" transform="translate(1102,214)"/>
<path d="M0 0 C2.97 0 5.94 0 9 0 C9 0.66 9 1.32 9 2 C4.05 3.485 4.05 3.485 -1 5 C-0.67 3.35 -0.34 1.7 0 0 Z " fill="#4B94CA" transform="translate(351,169)"/>
<path d="M0 0 C-2.07309734 1.11058786 -3.88618411 1.97398494 -6.1875 2.5 C-6.785625 2.665 -7.38375 2.83 -8 3 C-8.33 3.66 -8.66 4.32 -9 5 C-10.65 5 -12.3 5 -14 5 C-14 4.34 -14 3.68 -14 3 C-4.58997722 -0.44419134 -4.58997722 -0.44419134 0 0 Z " fill="#4F87B3" transform="translate(310,177)"/>
<path d="M0 0 C0.33 0.66 0.66 1.32 1 2 C1.99 2.33 2.98 2.66 4 3 C-2.625 6.125 -2.625 6.125 -6 5 C-5.34 5 -4.68 5 -4 5 C-3.896875 4.360625 -3.79375 3.72125 -3.6875 3.0625 C-3.460625 2.381875 -3.23375 1.70125 -3 1 C-2.01 0.67 -1.02 0.34 0 0 Z " fill="#DEE3E5" transform="translate(356,171)"/>
<path d="M0 0 C1.15224028 0.92961422 2.29659176 1.8690125 3.4375 2.8125 C4.07558594 3.33457031 4.71367188 3.85664063 5.37109375 4.39453125 C7 6 7 6 8 9 C4.63704165 7.55873214 2.37072898 5.79407345 0 3 C0 2.01 0 1.02 0 0 Z " fill="#9F9697" transform="translate(730,304)"/>
<path d="M0 0 C0.66 0.33 1.32 0.66 2 1 C0.3125 3.5 0.3125 3.5 -2 6 C-4.75 6.3125 -4.75 6.3125 -7 6 C-4.74259377 3.66475218 -2.7194239 1.81294927 0 0 Z " fill="#16212E" transform="translate(335,431)"/>
<path d="M0 0 C0 3 0 3 -1.3125 4.38671875 C-2.875 5.59114583 -4.4375 6.79557292 -6 8 C-6 5 -6 5 -4.6875 3.61328125 C-3.125 2.40885417 -1.5625 1.20442708 0 0 Z " fill="#B5AAAA" transform="translate(1273,235)"/>
<path d="M0 0 C-0.33 1.32 -0.66 2.64 -1 4 C-2.32 4.33 -3.64 4.66 -5 5 C-5 4.34 -5 3.68 -5 3 C-5.99 2.67 -6.98 2.34 -8 2 C-2.25 0 -2.25 0 0 0 Z " fill="#649FD1" transform="translate(208,421)"/>
<path d="M0 0 C-3.66291938 2.47785723 -6.6109185 3.48964169 -11 4 C-11 3.34 -11 2.68 -11 2 C-3.57142857 -1.57142857 -3.57142857 -1.57142857 0 0 Z " fill="#6E9FC9" transform="translate(257,404)"/>
<path d="M0 0 C2.375 0.6875 2.375 0.6875 5 2 C6.3125 4.625 6.3125 4.625 7 7 C3.17053157 5.54744301 1.87949705 3.57104439 0 0 Z " fill="#B3ABAA" transform="translate(1595,234)"/>
<path d="M0 0 C5.875 3.625 5.875 3.625 7 7 C4 7 4 7 2.61328125 5.6875 C1.40885417 4.125 0.20442708 2.5625 -1 1 C-0.67 0.67 -0.34 0.34 0 0 Z " fill="#9A8E90" transform="translate(877,308)"/>
<path d="M0 0 C-1.75 1.5625 -1.75 1.5625 -4 3 C-6.25 2.6875 -6.25 2.6875 -8 2 C-8 1.34 -8 0.68 -8 0 C-4.94736336 -0.98120464 -3.05263664 -0.98120464 0 0 Z " fill="#4E89BB" transform="translate(292,184)"/>
<path d="M0 0 C0.66 0.66 1.32 1.32 2 2 C-0.97 4.475 -0.97 4.475 -4 7 C-4 4 -4 4 -2 1.8125 C-1.34 1.214375 -0.68 0.61625 0 0 Z " fill="#16252C" transform="translate(416,385)"/>
<path d="M0 0 C4.41889613 1.35021826 6.34345343 3.26115668 9 7 C5.18315774 5.44499019 2.80804268 2.96404505 0 0 Z " fill="#5D91BC" transform="translate(230,288)"/>
</svg>
